<?xml version="1.0" encoding="utf-8"?>
<!-- Generator: Adobe Illustrator 23.0.1, SVG Export Plug-In . SVG Version: 6.00 Build 0)  -->
<svg version="1.1" xmlns="http://www.w3.org/2000/svg" xmlns:xlink="http://www.w3.org/1999/xlink" x="0px" y="0px"
	 viewBox="0 0 400 400" style="enable-background:new 0 0 400 400;" xml:space="preserve">
<style type="text/css">
	.st0{display:none;}
	.st1{display:inline;fill:#FFFF00;}
	.st2{stroke:#000000;stroke-miterlimit:10;}
	.st3{fill:#FFFFFF;}
	.st4{fill:#4267B2;}
	.st5{fill:#59C36A;}
	.st6{fill:#00A66C;}
	.st7{fill:#FFDA2D;}
	.st8{fill:#4086F4;}
	.st9{fill:#4175DF;}
	.st10{fill:#FF641A;}
	.st11{fill:#F03800;}
	.st12{fill:#FFFFFF;stroke:#FFFFFF;stroke-miterlimit:10;}
	.st13{fill:#CB2027;}
	.st14{fill:#F1F2F2;}
	.st15{fill:#03A9F4;}
	.st16{fill:#F6C5A9;}
	.st17{fill:#F9BE9F;}
	.st18{fill:#FCB795;}
	.st19{fill:#F5C4A9;}
	.st20{fill:#F3C9B0;}
	.st21{fill:#F9B909;}
	.st22{fill:#F7AE0E;}
	.st23{fill:#FBB897;}
	.st24{fill:#F2CEB8;}
	.st25{fill:#37AC7A;}
	.st26{fill:#37C682;}
	.st27{fill:#F6A212;}
	.st28{fill:#35B87C;}
	.st29{fill:#39BA7F;}
	.st30{fill:#37B07A;}
	.st31{fill:#37C381;}
	.st32{fill:#FBC505;}
	.st33{fill:#38A778;}
	.st34{fill:#FCCD02;}
	.st35{fill:#FC9502;}
	.st36{fill:#F3CBB2;}
	.st37{fill:#F8BD9E;}
	.st38{fill:#399A75;}
	.st39{fill:#399071;}
	.st40{fill:#35BE7E;}
	.st41{fill:#37B27B;}
	.st42{fill:#FD7E02;}
	.st43{fill:#37A277;}
	.st44{fill:#FD8A02;}
	.st45{fill:#009AD8;}
	.st46{fill:#0A3B82;}
	.st47{fill:#192A67;}
	.st48{fill:#2195F2;}
	.st49{fill:#019688;}
	.st50{fill:#F7F8F8;}
	.st51{fill:#455A64;}
	.st52{fill:#F8F8F9;}
	.st53{fill:#009900;}
	.st54{display:none;fill:#009900;}
	.st55{fill:none;stroke:#000000;stroke-width:0.75;stroke-miterlimit:10;}
	.st56{fill:#009A46;}
	.st57{fill:#FF5805;}
	.st58{fill:#F5AFCB;}
	.st59{fill:#FF9B00;}
	.st60{fill-rule:evenodd;clip-rule:evenodd;fill:#3395FF;}
	.st61{fill-rule:evenodd;clip-rule:evenodd;fill:#072654;}
	.st62{fill:#635BFF;}
	.st63{display:none;fill:#FEFEFE;}
	.st64{fill:#ED7232;}
	.st65{fill:#327AEF;}
	.st66{fill:#0C3798;}
	.st67{fill:#2F79EF;}
	.st68{fill:#88B7F8;}
	.st69{fill:#B6DAF8;}
	.st70{fill:#88B8F8;}
	.st71{fill:#ED7231;}
	.st72{fill:#0C3797;}
	.st73{fill:#0E3999;}
	.st74{fill:#3079EF;}
	.st75{display:none;fill:#FEFBFB;}
	.st76{display:none;fill:#FBFCFE;}
	.st77{display:none;fill:#FAFAFE;}
	.st78{display:none;fill:#FDFDFE;}
	.st79{fill:#FEE5B2;}
	.st80{fill:#FED480;}
	.st81{fill:#60BE80;}
	.st82{fill:#8AE58A;}
	.st83{fill:#59243F;}
	.st84{fill:#80334D;}
	.st85{fill:#D8E4FE;}
	.st86{fill:#EBF1FE;}
	.st87{fill:#344B5E;}
	.st88{fill:#FED05C;}
	.st89{fill:#FE7058;}
	.st90{fill:#F2F1EF;}
	.st91{fill:#435C6D;}
	.st92{fill:#415A6C;}
	.st93{fill:#FED483;}
	.st94{fill:#CDD3DD;}
	.st95{fill:#F1F1F1;}
	.st96{fill:#AAB1B8;}
	.st97{display:none;fill:#FFFFFF;}
</style>
<g id="Layer_3" class="st0">
	<rect x="280" class="st1" width="40" height="40"/>
	<title>Group</title>
	<desc>Created with Sketch.</desc>
</g>
<g id="Layer_4">
	<path class="st2" d="M21.74,20l7.4-7.38c0.48-0.48,0.48-1.26,0-1.74c-0.48-0.48-1.26-0.48-1.74,0L20,18.26l-7.4-7.38
		c-0.48-0.48-1.26-0.48-1.74,0c-0.48,0.48-0.48,1.26,0,1.74l7.4,7.38l-7.4,7.38c-0.48,0.48-0.48,1.26,0,1.74
		c0.24,0.24,0.56,0.36,0.87,0.36s0.63-0.12,0.87-0.36l7.4-7.38l7.4,7.38c0.24,0.24,0.56,0.36,0.87,0.36c0.32,0,0.63-0.12,0.87-0.36
		c0.48-0.48,0.48-1.26,0-1.74L21.74,20z"/>
	<g>
		<g>
			<path class="st3" d="M69.29,25.76L66,22.47c0.6-1.2,1-2.59,1-3.99C67,13.79,63.2,10,58.52,10s-8.48,3.79-8.48,8.48
				s3.79,8.48,8.48,8.48c1.4,0,2.79-0.4,3.99-1l3.29,3.29c1,1,2.49,1,3.49,0C70.19,28.25,70.19,26.76,69.29,25.76z M58.52,24.96
				c-3.59,0-6.48-2.89-6.48-6.48S54.93,12,58.52,12S65,14.89,65,18.48S62.11,24.96,58.52,24.96z"/>
		</g>
	</g>
	<g>
		<path d="M100,25.7c-0.36,0-0.72-0.14-0.99-0.41l-8.6-8.6c-0.55-0.55-0.55-1.43,0-1.98c0.55-0.55,1.43-0.55,1.98,0l7.61,7.61
			l7.61-7.61c0.55-0.55,1.43-0.55,1.98,0c0.55,0.55,0.55,1.43,0,1.98l-8.6,8.6C100.72,25.56,100.36,25.7,100,25.7z"/>
	</g>
	<g>
		<path class="st3" d="M140,25.7c-0.36,0-0.72-0.14-0.99-0.41l-8.6-8.6c-0.55-0.55-0.55-1.43,0-1.98c0.55-0.55,1.43-0.55,1.98,0
			l7.61,7.61l7.61-7.61c0.55-0.55,1.43-0.55,1.98,0c0.55,0.55,0.55,1.43,0,1.98l-8.6,8.6C140.72,25.56,140.36,25.7,140,25.7z"/>
	</g>
	<g>
		<g>
			<g>
				<path class="st3" d="M176,26c-1.1,0-1.99,0.89-1.99,2c0,1.11,0.88,2,1.99,2c1.1,0,2-0.89,2-2C178,26.89,177.1,26,176,26z"/>
				<path class="st3" d="M177.1,21h7.45c0.75,0,1.4-0.41,1.75-1.03l3.58-6.49c0.08-0.14,0.13-0.31,0.13-0.48c0-0.56-0.45-1-1-1
					h-14.79l-0.95-2H170v2h2l3.59,7.58l-1.35,2.45C174.09,22.33,174,22.65,174,23c0,1.1,0.9,2,2,2h12v-2h-11.57
					c-0.14,0-0.25-0.11-0.25-0.25c0-0.05,0.01-0.08,0.03-0.12L177.1,21z"/>
				<path class="st3" d="M186,26c-1.1,0-1.99,0.89-1.99,2c0,1.11,0.88,2,1.99,2c1.11,0,2-0.9,2-2C188,26.9,187.1,26,186,26z"/>
			</g>
		</g>
	</g>
	<g>
		<path class="st4" d="M148.9,50H131.1c-0.61,0-1.1,0.49-1.1,1.1V68.9c0,0.61,0.49,1.1,1.1,1.1h17.79c0.61,0,1.1-0.49,1.1-1.1
			c0,0,0,0,0,0V51.1C150,50.49,149.51,50,148.9,50z"/>
		<path class="st3" d="M143.81,70v-7.73h2.61l0.39-3.03h-3v-1.93c0-0.87,0.24-1.47,1.5-1.47h1.59v-2.7
			c-0.28-0.04-1.23-0.12-2.33-0.12c-2.3,0-3.88,1.41-3.88,3.99v2.23h-2.6v3.03h2.6V70H143.81z"/>
	</g>
	<g>
		<path class="st5" d="M106.43,67.61C104.7,69.07,102.45,70,100,70c-3.64,0-6.84-2.01-8.58-4.94l0.65-2.99l2.88-0.53
			c0.67,2.16,2.68,3.74,5.05,3.74c1.15,0,2.21-0.36,3.09-1.01l2.77,0.42L106.43,67.61z"/>
		<path class="st6" d="M106.43,67.61l-0.57-2.92l-2.77-0.42c-0.88,0.64-1.95,1.01-3.09,1.01V70C102.45,70,104.7,69.07,106.43,67.61z
			"/>
		<g id="Connected_Home_1_">
			<g>
				<g>
					<g>
						<path class="st7" d="M94.73,60c0,0.54,0.08,1.05,0.22,1.54l-3.53,3.53C90.54,63.59,90,61.85,90,60c0-1.85,0.54-3.59,1.42-5.06
							l2.83,0.49l0.7,3.04C94.81,58.95,94.73,59.46,94.73,60L94.73,60z"/>
					</g>
				</g>
			</g>
		</g>
		<path class="st8" d="M110,60c0,3.05-1.41,5.78-3.57,7.61l-3.34-3.34c0.68-0.49,1.25-1.15,1.63-1.92H100
			c-0.33,0-0.59-0.26-0.59-0.59v-3.52c0-0.33,0.26-0.59,0.59-0.59h9.25c0.28,0,0.53,0.2,0.57,0.48C109.94,58.75,110,59.38,110,60
			L110,60z"/>
		<path class="st9" d="M104.72,62.34c-0.38,0.77-0.95,1.43-1.63,1.92l3.34,3.34c2.16-1.83,3.57-4.56,3.57-7.61
			c0-0.62-0.06-1.25-0.18-1.86c-0.05-0.28-0.29-0.48-0.57-0.48H100v4.69H104.72z"/>
		<path class="st10" d="M106.6,52.79c0.01,0.16-0.06,0.32-0.16,0.43l-2.51,2.5c-0.2,0.21-0.53,0.23-0.76,0.06
			c-0.93-0.69-2.02-1.05-3.16-1.05c-2.37,0-4.38,1.58-5.05,3.74l-3.53-3.53C93.16,52.01,96.36,50,100,50c2.33,0,4.61,0.86,6.39,2.36
			C106.52,52.46,106.59,52.63,106.6,52.79L106.6,52.79z"/>
		<path class="st11" d="M103.16,55.78c0.23,0.18,0.56,0.15,0.76-0.06l2.51-2.5c0.11-0.12,0.18-0.27,0.16-0.43s-0.08-0.33-0.21-0.43
			c-1.78-1.5-4.05-2.36-6.39-2.36v4.73C101.15,54.73,102.24,55.09,103.16,55.78z"/>
	</g>
	<path class="st12" d="M21.74,60l7.4-7.38c0.48-0.48,0.48-1.26,0-1.74c-0.48-0.48-1.26-0.48-1.74,0L20,58.26l-7.4-7.38
		c-0.48-0.48-1.26-0.48-1.74,0c-0.48,0.48-0.48,1.26,0,1.74l7.4,7.38l-7.4,7.38c-0.48,0.48-0.48,1.26,0,1.74
		c0.24,0.24,0.56,0.36,0.87,0.36s0.63-0.12,0.87-0.36l7.4-7.38l7.4,7.38c0.24,0.24,0.56,0.36,0.87,0.36c0.32,0,0.63-0.12,0.87-0.36
		c0.48-0.48,0.48-1.26,0-1.74L21.74,60z"/>
	<g>
		<circle class="st13" cx="60" cy="60" r="10"/>
		<g>
			<path class="st14" d="M60.81,63.39c-0.76-0.06-1.07-0.43-1.67-0.79c-0.33,1.71-0.72,3.35-1.9,4.2c-0.36-2.58,0.53-4.52,0.95-6.59
				c-0.71-1.2,0.09-3.61,1.59-3.01c1.85,0.73-1.6,4.45,0.71,4.92c2.42,0.49,3.4-4.19,1.9-5.71c-2.16-2.2-6.3-0.05-5.79,3.09
				c0.12,0.77,0.92,1,0.32,2.06c-1.39-0.31-1.8-1.4-1.75-2.86c0.09-2.38,2.14-4.05,4.21-4.28c2.61-0.29,5.06,0.96,5.4,3.41
				C65.15,60.61,63.6,63.61,60.81,63.39L60.81,63.39z"/>
		</g>
	</g>
	<path class="st15" d="M30,93.8c-0.74,0.33-1.54,0.54-2.36,0.65c0.85-0.51,1.5-1.31,1.8-2.27c-0.79,0.47-1.67,0.81-2.6,0.99
		c-0.75-0.8-1.83-1.3-2.99-1.3c-2.27,0-4.1,1.84-4.1,4.1c0,0.33,0.03,0.64,0.09,0.93c-3.41-0.17-6.42-1.8-8.45-4.29
		c-0.35,0.61-0.56,1.32-0.56,2.07c0,1.42,0.73,2.68,1.82,3.41c-0.66-0.01-1.3-0.2-1.85-0.5c0,0.01,0,0.03,0,0.04
		c0,1.99,1.42,3.65,3.28,4.03c-0.33,0.09-0.7,0.14-1.07,0.14c-0.26,0-0.53-0.01-0.78-0.07c0.53,1.62,2.04,2.82,3.83,2.86
		c-1.4,1.09-3.17,1.75-5.08,1.75c-0.34,0-0.66-0.01-0.98-0.06c1.82,1.17,3.97,1.84,6.29,1.84c7.55,0,11.67-6.25,11.67-11.67
		c0-0.18-0.01-0.36-0.02-0.53C28.76,95.35,29.44,94.63,30,93.8z"/>
	<path d="M105.48,102.45c-1.17,0-2.21,0.53-2.9,1.37l-4.51-2.56c0.14-0.39,0.22-0.82,0.22-1.26c0-0.44-0.08-0.87-0.22-1.26
		l4.51-2.56c0.69,0.83,1.74,1.37,2.9,1.37c2.08,0,3.77-1.69,3.77-3.77c0-2.08-1.69-3.77-3.77-3.77c-2.08,0-3.77,1.69-3.77,3.77
		c0,0.44,0.08,0.87,0.22,1.26l-4.51,2.56c-0.69-0.83-1.74-1.37-2.9-1.37c-2.08,0-3.77,1.69-3.77,3.77c0,2.08,1.69,3.77,3.77,3.77
		c1.17,0,2.21-0.53,2.9-1.37l4.51,2.56c-0.14,0.39-0.22,0.82-0.22,1.26c0,2.08,1.69,3.77,3.77,3.77c2.08,0,3.77-1.69,3.77-3.77
		C109.26,104.15,107.56,102.45,105.48,102.45z M105.48,91.32c1.35,0,2.45,1.1,2.45,2.45c0,1.35-1.1,2.45-2.45,2.45
		c-1.35,0-2.45-1.1-2.45-2.45C103.03,92.42,104.13,91.32,105.48,91.32z M94.52,102.45c-1.35,0-2.45-1.1-2.45-2.45
		c0-1.35,1.1-2.45,2.45-2.45c1.35,0,2.45,1.1,2.45,2.45C96.97,101.35,95.87,102.45,94.52,102.45z M105.48,108.68
		c-1.35,0-2.45-1.1-2.45-2.45c0-1.35,1.1-2.45,2.45-2.45c1.35,0,2.45,1.1,2.45,2.45C107.94,107.58,106.84,108.68,105.48,108.68z"/>
	<g>
		<g>
			<path class="st3" d="M140.46,107.39c-0.53,0.71-1.34,1.15-2.23,1.19c-0.88,0.04-1.74-0.31-2.33-0.97l-5.31-5.89
				c-0.84-0.94-0.77-2.38,0.17-3.22c0.94-0.84,2.38-0.77,3.22,0.17l3.76,4.17c0.06,0.06,0.14,0.1,0.22,0.09
				c0.08,0,0.16-0.05,0.21-0.11l7.72-10.47c0.75-1.01,2.18-1.23,3.19-0.48c1.01,0.75,1.23,2.18,0.48,3.19L140.46,107.39z"/>
		</g>
	</g>
	<g transform="translate(0.000000,512.000000) scale(0.100000,-0.100000)">
		<path d="M1790.73,3819.78c-39.68-3.87-73.1-30.33-85.62-67.82c-1.96-5.87-3.33-11.62-4.38-18.28c-0.94-6.3-0.94-21.09,0-27.39
			c2.7-17.53,9.16-33.22,19.02-46.33c16.32-21.6,39.06-34.99,66.57-39.25c6.3-0.94,21.09-0.94,27.39,0
			c27.51,4.27,50.25,17.65,66.57,39.25c9.86,13.11,16.32,28.8,19.02,46.33c0.94,6.3,0.94,21.09,0,27.39
			c-2.19,14.13-6.73,27-13.5,38.12c-15.77,25.91-41.25,42.77-71.69,47.39C1809.2,3819.93,1795.77,3820.25,1790.73,3819.78z
			 M1777.42,3763.58c0.7-0.35,15.97-9.2,33.93-19.61c21.72-12.64,33.19-19.49,34.16-20.51c1.25-1.29,1.45-1.72,1.45-3.37
			c0-1.21-0.27-2.31-0.78-3.05c-0.55-0.82-9.9-6.5-34.63-21.01c-18.63-10.92-34.48-20.04-35.22-20.23c-1.92-0.51-3.8,0.12-5.24,1.76
			l-1.21,1.37v39.45c0,21.72-0.12,39.96-0.23,40.58c-0.43,2.23,2.66,5.24,5.44,5.24
			C1775.66,3764.21,1776.72,3763.93,1777.42,3763.58z"/>
	</g>
	<g>
		<path class="st3" d="M190,111.88h-2.41c0-4.06-3.41-7.36-7.59-7.36c-4.19,0-7.59,3.3-7.59,7.36H170c0-5.39,4.49-9.77,10-9.77
			C185.51,102.11,190,106.49,190,111.88z"/>
		<path class="st3" d="M180,101.32c-3.64,0-6.6-2.96-6.6-6.6c0-3.64,2.96-6.6,6.6-6.6c3.64,0,6.6,2.96,6.6,6.6
			C186.6,98.36,183.64,101.32,180,101.32z M180,90.53c-2.31,0-4.19,1.88-4.19,4.19s1.88,4.19,4.19,4.19c2.31,0,4.19-1.88,4.19-4.19
			S182.31,90.53,180,90.53z"/>
	</g>
	<g transform="translate(0.000000,512.000000) scale(0.100000,-0.100000)">
		<path d="M1356.91,3789.67c-4.18-1.29-7.23-5.94-6.77-10.36c0.35-3.48,2.39-6.45,5.55-8.13l1.56-0.86h67.85h67.85l1.56,0.86
			c3.6,1.92,5.44,4.97,5.47,8.92c0,3.99-1.88,7.16-5.4,9.07c-1.17,0.66-5.04,0.7-68.91,0.78
			C1388.47,3789.98,1357.54,3789.86,1356.91,3789.67z"/>
		<path d="M1307.79,3729.79c-3.52-0.7-7.12-4.42-7.66-7.98c-0.39-2.62,0.12-5.04,1.53-7.12c1.64-2.42,3.87-3.95,6.53-4.42
			c1.45-0.27,32.97-0.35,93.27-0.31c82.51,0.12,91.24,0.2,92.49,0.74c2.03,0.94,3.79,2.54,5.01,4.61c0.9,1.53,1.06,2.23,1.06,4.73
			c0,2.5-0.16,3.21-1.06,4.73c-1.21,2.07-2.97,3.68-5.01,4.61c-1.25,0.59-9.93,0.63-92.88,0.66
			C1349.25,3730.11,1308.77,3729.99,1307.79,3729.79z"/>
		<path d="M1396.92,3669.45c-8.68-3.09-9.15-14.78-0.74-18.58c1.72-0.78,2.31-0.82,48.73-0.82c52.29,0,49.12-0.16,52.09,2.7
			c2.23,2.19,3.01,4.07,3.01,7.27c-0.04,2.03-0.23,3.17-0.86,4.34c-1.21,2.27-4.07,4.65-6.18,5.2
			C1490.3,3670.23,1398.83,3670.16,1396.92,3669.45z"/>
	</g>
	<g transform="translate(0.000000,512.000000) scale(0.100000,-0.100000)">
		<path d="M995.09,3819.56c-0.87-0.32-2.28-0.98-3.15-1.54c-0.87-0.59-21.63-21.11-46.13-45.69c-50.11-50.22-46.4-46.01-46.4-52.31
			c0-6.3-3.78-2.05,46.76-52.67c37.42-37.46,45.26-45.14,47.11-46.09c1.97-0.98,2.6-1.1,6.15-1.1c3.31,0,4.21,0.16,5.79,0.91
			c7.52,3.7,10.32,12.53,6.3,19.77c-0.63,1.14-14.85,15.68-39.63,40.49l-38.64,38.68l38.64,38.72c24.78,24.78,39,39.31,39.63,40.46
			c4.02,7.25,1.18,16.11-6.3,19.77C1002.96,3820.03,997.53,3820.35,995.09,3819.56z"/>
		<path d="M1081.55,3819.25c-2.01-0.79-5.51-4.18-47.35-45.97c-51.05-51.01-47.39-46.88-47.39-53.26c0-6.38-3.66-2.25,47.39-53.26
			c43.76-43.73,45.26-45.14,47.55-46.01c1.93-0.71,2.95-0.83,5.71-0.71c2.88,0.12,3.7,0.35,5.83,1.5c2.88,1.54,4.88,3.62,6.34,6.7
			c0.83,1.81,1.02,2.72,0.98,5.51c0,6.26,3.07,2.72-41.09,46.99l-39.23,39.27l39.23,39.31c44.16,44.24,41.09,40.69,41.09,46.96
			c0.04,2.8-0.16,3.7-0.98,5.51c-1.46,3.07-3.43,5.16-6.34,6.7c-2.21,1.18-2.88,1.34-6.03,1.46
			C1084.39,3820.07,1083.28,3819.91,1081.55,3819.25z"/>
	</g>
	<g>
		<path class="st16" d="M23.26,145.06c0.64-0.01,1.04,0.26,1.2,0.83c0.06,0.23,0.06,0.48-0.05,0.7c-3.65,0-7.29,0-10.94,0
			c0-0.4,0-0.79,0-1.19c2.25,0,4.51,0,6.76,0c0.06,0.02,0.11,0.07,0.17,0.07c0.47-0.06,0.93-0.14,1.39-0.21
			C22.28,145.19,22.77,145.13,23.26,145.06z"/>
		<path class="st17" d="M13.46,146.6c3.65,0,7.29,0,10.94,0c-0.15,0.37-0.44,0.57-0.81,0.69c-0.45,0.14-0.91,0.29-1.36,0.43
			c-0.1-0.03-0.2-0.08-0.3-0.08c-2.82,0-5.65,0-8.47,0c-0.01-0.34-0.01-0.69-0.02-1.03L13.46,146.6z"/>
		<path class="st18" d="M26.6,136.24c-0.56,0.25-1.13,0.51-1.69,0.76c-0.25,0.04-0.51,0.09-0.76,0.13c-0.1,0.02-0.21,0.02-0.31,0.04
			c-0.26,0-0.51,0-0.77,0c-0.02-0.01-0.04-0.03-0.07-0.03c-0.57,0-1.13,0.01-1.7,0.01c-0.53,0-1.07,0-1.6-0.02
			c-0.36-0.01-0.62-0.19-0.75-0.52c-0.13-0.33-0.1-0.64,0.15-0.9c0.09,0,0.18,0,0.27,0c2.39,0,4.78,0,7.16,0
			C26.56,135.89,26.58,136.06,26.6,136.24z"/>
		<path class="st19" d="M16.47,133.86c0.19-0.24,0.38-0.48,0.58-0.72c0.38-0.01,0.76-0.04,1.14-0.04c2.78,0,5.56,0,8.34,0
			c0,0.42,0,0.84,0,1.26c-1.15,0-2.29,0-3.44,0c0.07-0.16,0.13-0.32,0.2-0.49c-0.65,0-1.27,0-1.88,0c-0.66,0-1.33,0-1.99,0
			c-0.75,0-1.51,0-2.26,0C16.93,133.87,16.7,133.87,16.47,133.86z"/>
		<path class="st20" d="M26.54,133.1c-2.78,0-5.56,0-8.34,0c-0.38,0-0.76,0.02-1.14,0.04c0.33-0.47,0.71-0.89,1.26-1.11
			c0.09,0.03,0.17,0.08,0.26,0.08c2.34,0,4.68,0,7.02,0c0.11,0,0.23-0.05,0.34-0.08c0.2,0.04,0.4,0.08,0.6,0.12
			c0,0.31,0.01,0.61,0.01,0.92C26.55,133.08,26.54,133.09,26.54,133.1z"/>
		<path class="st21" d="M23.26,141.76c0,0.4,0,0.79,0,1.19c-2.86,0-5.71,0-8.57,0c0-0.38,0-0.77,0-1.15c1.09,0,2.18,0,3.27,0
			c0,0.13,0,0.27,0,0.4c0,0.23,0.12,0.31,0.33,0.2c0.17-0.09,0.34-0.2,0.51-0.3c0.11-0.07,0.21-0.09,0.33-0.01
			c0.17,0.11,0.35,0.21,0.52,0.31c0.18,0.1,0.33,0.02,0.34-0.18c0.01-0.15,0-0.31,0-0.46C21.09,141.76,22.17,141.76,23.26,141.76z"
			/>
		<path class="st22" d="M14.69,142.95c2.86,0,5.71,0,8.57,0c0,0.38,0,0.77,0,1.15c-0.74,0-1.48,0-2.22,0c-0.71,0-1.42,0-2.12,0
			c-0.07,0-0.18-0.04-0.18,0.1c-0.07-0.02-0.13-0.03-0.2-0.05c-0.53-0.17-1.05-0.35-1.58-0.52c-0.5-0.16-1-0.14-1.5,0.02
			c-0.26,0.09-0.52,0.17-0.78,0.25C14.69,143.59,14.69,143.27,14.69,142.95z"/>
		<path class="st23" d="M13.46,147.63c2.82,0,5.65,0,8.47,0c0.1,0,0.2,0.05,0.3,0.08c-0.23,0.08-0.47,0.17-0.7,0.24
			c-0.84,0.28-1.68,0.56-2.51,0.85c-0.85,0.3-1.66,0.24-2.45-0.18c-0.34-0.18-0.69-0.33-1.02-0.51c-0.2-0.11-0.4-0.13-0.61-0.1
			c-0.5,0.08-1,0.17-1.5,0.26c0-0.15,0-0.3,0-0.45C13.45,147.76,13.46,147.69,13.46,147.63z"/>
		<path class="st24" d="M25.94,132.03c-0.11,0.03-0.23,0.08-0.34,0.08c-2.34,0-4.68,0-7.02,0c-0.09,0-0.17-0.05-0.26-0.08
			c0.4-0.19,0.8-0.39,1.21-0.57c0.33-0.14,0.66-0.28,1-0.38c0.52-0.15,1.03-0.05,1.54,0.07c1.26,0.29,2.53,0.56,3.8,0.85
			C25.89,132,25.91,132.01,25.94,132.03z"/>
		<path class="st25" d="M26.6,136.24c-0.02-0.18-0.04-0.35-0.06-0.53c0.01-0.33,0.01-0.66,0.02-1c0.81,0,1.62,0,2.43,0
			c0,0.41,0.02,0.81,0.01,1.22c-0.02,0.46-0.35,0.78-0.81,0.8c-0.27,0.01-0.55,0.01-0.82,0C27.01,136.72,26.76,136.54,26.6,136.24z"
			/>
		<path class="st26" d="M16.47,133.86c0.23,0,0.46,0.01,0.69,0.01c-0.09,0.21-0.18,0.42-0.28,0.62c-0.06,0.14-0.12,0.27-0.18,0.4
			c-0.19,0-0.38,0-0.57,0c-0.25,0-0.42,0.17-0.42,0.42c0,0.22,0,0.43,0,0.65c-0.05,0.06-0.11,0.12-0.14,0.18
			c-0.24,0.52-0.47,1.04-0.71,1.56c-0.03,0.06-0.1,0.09-0.16,0.13c0-0.61-0.01-1.22-0.01-1.83c0-0.43,0-0.87,0-1.3
			c0.01-0.51,0.35-0.85,0.86-0.85C15.85,133.87,16.16,133.87,16.47,133.86z"/>
		<path class="st27" d="M18.74,144.2c0-0.14,0.11-0.1,0.18-0.1c0.71,0,1.42,0,2.12,0c0.74,0,1.48,0,2.22,0c0,0.32,0,0.64,0,0.96
			c-0.49,0.07-0.98,0.13-1.47,0.2c-0.47,0.07-0.93,0.15-1.39,0.21c-0.05,0.01-0.11-0.04-0.17-0.07c-0.01-0.05-0.02-0.1-0.03-0.15
			c-0.08-0.4-0.32-0.67-0.71-0.79C19.24,144.38,18.99,144.29,18.74,144.2z"/>
		<path class="st28" d="M28.99,134.71c-0.81,0-1.62,0-2.43,0c-0.01-0.12-0.01-0.23-0.02-0.35c0-0.42,0-0.84,0-1.26
			c0.01-0.01,0.01-0.03,0.02-0.04c0.81,0,1.62,0,2.43,0C28.99,133.61,28.99,134.16,28.99,134.71z"/>
		<path class="st29" d="M19.08,139.18c-0.89,0-1.79,0-2.68,0c0.14-0.34,0.28-0.68,0.42-1.02c0.07,0,0.14,0,0.21,0
			c0.42,0,0.59-0.21,0.48-0.61c0.08-0.07,0.2-0.12,0.25-0.21c0.1-0.17,0.16-0.37,0.25-0.55c0.04-0.07,0.1-0.13,0.15-0.2
			c0.06,0.74,0.5,1.29,1.23,1.53c-0.01,0.11,0,0.22-0.03,0.32C19.27,138.69,19.17,138.93,19.08,139.18z"/>
		<path class="st30" d="M19.08,139.18c0.09-0.24,0.19-0.49,0.28-0.73c0.03-0.1,0.02-0.21,0.03-0.32c0.76,0.17,1.62-0.19,1.92-0.98
			c0.57,0,1.13-0.01,1.7-0.01c0.02,0,0.04,0.02,0.07,0.03c0,0.06-0.01,0.12-0.02,0.19c-0.19,0-0.35,0-0.52,0
			c-0.35,0-0.49,0.14-0.5,0.5c-0.06,0.1-0.13,0.21-0.18,0.31c-0.15,0.33-0.29,0.67-0.44,1.01
			C20.64,139.18,19.86,139.18,19.08,139.18z"/>
		<path class="st31" d="M28.99,133.07c-0.81,0-1.62,0-2.43,0c0-0.31-0.01-0.61-0.01-0.92c0.1-0.48,0.4-0.73,0.88-0.73
			c0.24,0,0.48,0,0.73,0c0.46,0,0.81,0.31,0.84,0.77C29.01,132.48,28.99,132.77,28.99,133.07z"/>
		<path class="st31" d="M11.01,145.1c0-0.29-0.02-0.57,0-0.86c0.03-0.43,0.34-0.74,0.77-0.76c0.32-0.02,0.64-0.01,0.95,0
			c0.41,0.02,0.68,0.33,0.74,0.81c0,0.08,0,0.15,0,0.23c-0.01,0.19-0.01,0.38-0.02,0.58C12.63,145.1,11.82,145.1,11.01,145.1z"/>
		<path class="st24" d="M13.46,144.52c0-0.08,0-0.15,0-0.23c0.41-0.13,0.81-0.26,1.22-0.39c0.26-0.08,0.52-0.17,0.78-0.25
			c0.5-0.17,1-0.19,1.5-0.02c0.53,0.17,1.05,0.35,1.58,0.52c0.07,0.02,0.13,0.04,0.2,0.05c0.25,0.09,0.5,0.18,0.75,0.27
			c-0.09,0.02-0.17,0.05-0.26,0.05C17.31,144.53,15.39,144.52,13.46,144.52z"/>
		<path class="st28" d="M11.01,145.1c0.81,0,1.62,0,2.43,0c0.01,0.1,0.01,0.2,0.02,0.31c0,0.4,0,0.79,0,1.19c0,0-0.02,0-0.02,0
			c-0.81,0-1.62,0-2.43,0C11.01,146.1,11.01,145.6,11.01,145.1z"/>
		<path class="st32" d="M17.96,141.8c-1.09,0-2.18,0-3.27,0c0-0.35,0-0.69,0.01-1.04c1.09,0,2.18,0,3.27,0c0,0,0.01,0,0.01,0
			c0,0.24,0,0.49,0,0.73C17.97,141.6,17.96,141.7,17.96,141.8z"/>
		<path class="st32" d="M23.26,141.76c-1.09,0-2.17,0-3.26,0c0-0.09,0-0.18,0-0.27c0-0.24,0-0.49,0-0.73l0.01,0
			c1.08,0,2.17,0,3.25,0C23.26,141.1,23.26,141.43,23.26,141.76z"/>
		<path class="st31" d="M16.82,138.16c-0.14,0.34-0.28,0.68-0.42,1.02c-0.31,0-0.61,0.02-0.92,0.01c-0.45-0.02-0.77-0.34-0.8-0.8
			c-0.01-0.18,0-0.36,0.01-0.53c0.05-0.04,0.13-0.08,0.16-0.13c0.24-0.52,0.47-1.04,0.71-1.56c0.03-0.07,0.09-0.12,0.14-0.18
			c0,0.58,0,1.17,0,1.75c0,0.26,0.17,0.43,0.43,0.43C16.36,138.16,16.59,138.16,16.82,138.16z"/>
		<path class="st25" d="M11.01,146.59c0.81,0,1.62,0,2.43,0c0.01,0.34,0.01,0.69,0.02,1.03c-0.01,0.06-0.01,0.13-0.02,0.19
			c-0.81,0-1.62,0-2.43,0C11.01,147.41,11.01,147,11.01,146.59z"/>
		<path class="st33" d="M23.83,137.17c0.1-0.01,0.21-0.02,0.31-0.04c0.25-0.04,0.51-0.09,0.76-0.13c0,0.45,0.01,0.91,0,1.36
			c0,0.46-0.33,0.8-0.79,0.82c-0.35,0.02-0.7,0-1.05-0.01c0.02-0.07,0.03-0.15,0.06-0.21c0.11-0.27,0.21-0.53,0.32-0.8
			c0.2,0.01,0.36-0.1,0.39-0.27C23.88,137.66,23.84,137.41,23.83,137.17z"/>
		<path class="st34" d="M17.96,140.77c-1.09,0-2.18,0-3.27,0c-0.03-0.41,0.4-0.76,0.77-0.76c0.83,0,1.67,0,2.5,0
			C17.97,140.26,17.96,140.52,17.96,140.77z"/>
		<path class="st34" d="M23.26,140.77c-1.08,0-2.17,0-3.25,0c0-0.25,0-0.51,0-0.76c0.83,0,1.67-0.01,2.5,0
			C22.9,140.01,23.25,140.39,23.26,140.77z"/>
		<path class="st33" d="M11.01,147.82c0.81,0,1.62,0,2.43,0c0,0.15,0,0.3,0,0.45c-0.04,0.04-0.1,0.08-0.12,0.13
			c-0.13,0.26-0.36,0.37-0.63,0.38c-0.27,0.01-0.53,0.01-0.8,0C11.3,148.78,10.96,148.41,11.01,147.82z"/>
		<path class="st25" d="M23.45,138.16c-0.11,0.27-0.22,0.53-0.32,0.8c-0.03,0.07-0.04,0.14-0.06,0.21c-0.55,0-1.1,0-1.65,0
			c0.15-0.34,0.29-0.67,0.44-1.01c0.05-0.11,0.12-0.21,0.18-0.31c0.12,0.25,0.33,0.33,0.6,0.31
			C22.9,138.15,23.18,138.16,23.45,138.16z"/>
		<path class="st35" d="M20,140.01c0,0.25,0,0.51,0,0.76c0,0-0.01,0-0.01,0c-0.68,0-1.35,0-2.03,0c0,0-0.01,0-0.01,0
			c0-0.25,0-0.51,0-0.76C18.64,140.01,19.32,140.01,20,140.01z"/>
		<path class="st36" d="M13.46,145.41c-0.01-0.1-0.01-0.2-0.02-0.31c0.01-0.19,0.01-0.38,0.02-0.58c1.92,0,3.84,0,5.77,0
			c0.09,0,0.17-0.03,0.26-0.05c0.39,0.12,0.63,0.39,0.71,0.79c0.01,0.05,0.02,0.1,0.03,0.15C17.97,145.41,15.72,145.41,13.46,145.41
			z"/>
		<path class="st37" d="M26.54,134.37c0.01,0.12,0.01,0.23,0.02,0.35c-0.01,0.33-0.01,0.66-0.02,1c-2.39,0-4.78,0-7.16,0
			c-0.09,0-0.18,0-0.27,0c0.14-0.19,0.35-0.26,0.58-0.3c0.37-0.07,0.73-0.15,1.1-0.22c0.05-0.01,0.09-0.01,0.14-0.02
			c0.4-0.07,0.8-0.16,1.2-0.22c0.41-0.06,0.74-0.25,0.98-0.58C24.24,134.37,25.39,134.37,26.54,134.37z"/>
		<path class="st38" d="M20.78,135.18c-0.37,0.07-0.73,0.15-1.1,0.22c-0.22,0.04-0.43,0.11-0.58,0.3c-0.25,0.27-0.29,0.58-0.16,0.9
			c0.13,0.33,0.39,0.51,0.75,0.52c0.53,0.02,1.07,0.01,1.6,0.02c-0.3,0.79-1.16,1.15-1.92,0.98c-0.73-0.24-1.17-0.8-1.23-1.53
			c-0.01-0.55,0.19-0.99,0.61-1.34c0.59-0.42,1.21-0.48,1.85-0.13C20.67,135.15,20.73,135.16,20.78,135.18z"/>
		<path class="st39" d="M23.45,138.16c-0.27,0-0.55-0.01-0.82,0c-0.27,0.02-0.47-0.06-0.6-0.31c0.01-0.35,0.15-0.5,0.5-0.5
			c0.17,0,0.33,0,0.52,0c0.01-0.07,0.01-0.13,0.02-0.19c0.26,0,0.51,0,0.77,0c0.01,0.24,0.05,0.49,0.01,0.73
			C23.81,138.06,23.65,138.17,23.45,138.16z"/>
		<path class="st40" d="M18.77,135.25c-0.42,0.35-0.63,0.8-0.61,1.34c-0.05,0.07-0.12,0.13-0.15,0.2c-0.09,0.18-0.15,0.38-0.25,0.55
			c-0.05,0.09-0.16,0.14-0.25,0.21c-0.1-0.15-0.23-0.21-0.4-0.19c-0.15,0.01-0.31,0-0.46,0c-0.1,0-0.13-0.04-0.13-0.14
			c0-0.46,0-0.92,0-1.38c0-0.12,0.05-0.14,0.15-0.14c0.17,0,0.34,0.01,0.52,0c0.21-0.01,0.37-0.21,0.37-0.42
			c-0.01-0.22-0.16-0.38-0.38-0.39c-0.15,0-0.31,0-0.46,0c0.06-0.13,0.12-0.27,0.18-0.4c0.09-0.21,0.18-0.41,0.28-0.62
			c0.75,0,1.51,0,2.26,0c0,0.04,0.01,0.08-0.01,0.11c-0.22,0.38-0.28,0.85-0.62,1.17C18.77,135.18,18.78,135.22,18.77,135.25z"/>
		<path class="st28" d="M18.77,135.25c0.01-0.03,0-0.07,0.02-0.09c0.34-0.32,0.41-0.79,0.62-1.17c0.02-0.03,0.01-0.07,0.01-0.11
			c0.66,0,1.33,0,1.99,0c-0.11,0.25-0.22,0.49-0.31,0.74c-0.07,0.18-0.12,0.36-0.18,0.55c-0.05,0.01-0.09,0.01-0.14,0.02
			c-0.05-0.02-0.11-0.04-0.16-0.06C19.98,134.77,19.36,134.82,18.77,135.25z"/>
		<path class="st41" d="M20.92,135.17c0.06-0.18,0.11-0.37,0.18-0.55c0.1-0.25,0.21-0.5,0.31-0.74c0.62,0,1.23,0,1.88,0
			c-0.07,0.17-0.14,0.33-0.2,0.49c-0.24,0.34-0.57,0.52-0.98,0.58C21.72,135.01,21.32,135.09,20.92,135.17z"/>
		<path class="st42" d="M20,141.5c0,0.09,0,0.18,0,0.27c0,0.15,0,0.31,0,0.46c-0.01,0.21-0.16,0.29-0.34,0.18
			c-0.18-0.1-0.36-0.2-0.52-0.31c-0.12-0.08-0.22-0.06-0.33,0.01c-0.17,0.11-0.33,0.21-0.51,0.3c-0.21,0.11-0.33,0.03-0.33-0.2
			c0-0.13,0-0.27,0-0.4c0-0.1,0-0.2,0.01-0.31C18.64,141.5,19.32,141.5,20,141.5z"/>
		<path class="st43" d="M16.7,134.9c0.15,0,0.31,0,0.46,0c0.22,0,0.38,0.16,0.38,0.39c0.01,0.21-0.16,0.4-0.37,0.42
			c-0.17,0.01-0.34,0.01-0.52,0c-0.1,0-0.15,0.02-0.15,0.14c0,0.46,0,0.92,0,1.38c0,0.1,0.03,0.14,0.13,0.14
			c0.15-0.01,0.31,0.01,0.46,0c0.18-0.01,0.31,0.05,0.4,0.19c0.11,0.4-0.06,0.61-0.48,0.61c-0.07,0-0.14,0-0.21,0
			c-0.23,0-0.46,0-0.69,0c-0.26,0-0.42-0.17-0.43-0.43c0-0.58,0-1.17,0-1.75c0-0.22,0-0.43,0-0.65c0-0.25,0.17-0.42,0.42-0.42
			C16.32,134.9,16.51,134.9,16.7,134.9z"/>
		<path class="st44" d="M20,141.5c-0.68,0-1.35,0-2.03,0c0-0.24,0-0.49,0-0.73c0.68,0,1.35,0,2.03,0C20,141.01,20,141.25,20,141.5z"
			/>
	</g>
	<g>
		<path class="st45" d="M66.8,175.1c0.89,0.45,1.4,1.19,1.59,2.14c0.23,1.15,0.02,2.27-0.34,3.36c-0.72,2.15-2.22,3.39-4.44,3.74
			c-0.63,0.1-1.27,0.11-1.9,0.13c-0.57,0.02-0.87,0.25-0.96,0.81c-0.21,1.32-0.42,2.64-0.62,3.97c-0.06,0.39-0.28,0.62-0.63,0.76
			c-1.2,0-2.4,0-3.59,0c-0.26-0.18-0.3-0.41-0.25-0.71c0.09-0.5,0.14-1.01,0.21-1.52c0.01-0.05,0.03-0.1,0.04-0.15
			c0.16-1.01,0.32-2.02,0.48-3.03c0.16-0.99,0.33-1.98,0.49-2.97c0.24-0.42,0.61-0.56,1.08-0.53c0.49,0.03,0.99,0.01,1.48,0.01
			c0.72,0,1.44-0.05,2.15-0.19c1.27-0.25,2.41-0.77,3.33-1.71c0.77-0.78,1.25-1.73,1.56-2.77C66.6,175.98,66.69,175.54,66.8,175.1z"
			/>
		<path class="st46" d="M56.87,181.62c-0.17,0.99-0.33,1.98-0.49,2.97c-0.16,1.01-0.32,2.02-0.48,3.03
			c-0.01,0.05-0.02,0.1-0.04,0.15c-1.25,0-2.5,0-3.75,0c-0.44,0-0.65-0.24-0.58-0.67c0.33-2.09,0.66-4.17,1-6.26
			c0.31-1.93,0.61-3.85,0.91-5.78c0.22-1.42,0.45-2.84,0.68-4.26c0.08-0.52,0.44-0.81,0.96-0.81c2.12,0,4.23-0.01,6.35,0
			c1.07,0.01,2.13,0.13,3.13,0.54c1.43,0.59,2.31,1.86,2.32,3.41c0,0.36-0.06,0.72-0.08,1.09c-0.15-0.05-0.3-0.11-0.46-0.16
			c-0.76-0.28-1.56-0.4-2.36-0.42c-1.78-0.03-3.55-0.01-5.33-0.01c-0.37,0-0.65,0.23-0.72,0.59c-0.07,0.33-0.11,0.66-0.17,0.99
			c-0.13,0.78-0.25,1.55-0.38,2.33c-0.11,0.69-0.23,1.39-0.34,2.08C56.98,180.84,56.93,181.23,56.87,181.62z"/>
		<path class="st47" d="M56.87,181.62c0.06-0.39,0.11-0.78,0.17-1.17c0.11-0.69,0.23-1.39,0.34-2.08c0.13-0.78,0.25-1.55,0.38-2.33
			c0.05-0.33,0.1-0.66,0.17-0.99c0.08-0.36,0.35-0.59,0.72-0.59c1.78,0,3.55-0.02,5.33,0.01c0.8,0.01,1.6,0.13,2.36,0.42
			c0.15,0.06,0.3,0.11,0.46,0.16c0,0.02,0.01,0.04,0.01,0.06c-0.11,0.44-0.2,0.89-0.32,1.32c-0.31,1.04-0.79,1.99-1.56,2.77
			c-0.92,0.94-2.05,1.46-3.33,1.71c-0.71,0.14-1.43,0.19-2.15,0.19c-0.49,0-0.99,0.02-1.48-0.01
			C57.48,181.06,57.12,181.2,56.87,181.62z"/>
	</g>
	<g>
		<path class="st48" d="M30,181.24c0,2.17,0,4.35,0,6.52c-0.02,0.02-0.04,0.03-0.05,0.06c-0.17,0.59-0.7,0.93-1.37,0.93
			c-5.73-0.01-11.47-0.01-17.2-0.01c-0.86,0-1.38-0.52-1.38-1.37c0-1.09,0-2.17,0-3.26c0-0.96,0-1.91,0.01-2.87
			c2.15,0,4.29,0,6.44,0c1.2,0,2.39,0,3.59,0c0.41,0.49,0.79,1,1.23,1.45c0.81,0.82,1.77,1.45,2.76,2.03
			c0.65,0.38,1.32,0.37,1.96-0.01c0.4-0.23,0.79-0.48,1.17-0.74c1.05-0.72,1.99-1.55,2.71-2.61C29.91,181.31,29.96,181.28,30,181.24
			z M14.37,183.74c-0.39,0-0.78,0-1.17,0c-0.42,0-0.7,0.25-0.7,0.62c0,0.37,0.28,0.63,0.7,0.63c0.79,0,1.57,0,2.36,0
			c0.41,0,0.7-0.26,0.69-0.63c0-0.36-0.28-0.61-0.69-0.62C15.17,183.74,14.77,183.74,14.37,183.74z"/>
		<path class="st49" d="M19.99,174.99c0-0.38,0.01-0.77,0-1.15c-0.01-0.35,0.15-0.58,0.47-0.71c1.4-0.6,2.8-1.2,4.21-1.8
			c0.22-0.1,0.43-0.1,0.66,0c1.4,0.6,2.8,1.21,4.21,1.8c0.22,0.09,0.37,0.25,0.47,0.46c0,1.17,0,2.34,0,3.52
			c-0.04,0.26-0.08,0.52-0.12,0.78c-0.2,1.36-0.74,2.55-1.67,3.56c-0.83,0.9-1.82,1.58-2.87,2.2c-0.24,0.14-0.47,0.13-0.7-0.01
			c-0.73-0.43-1.44-0.89-2.08-1.44c-0.82-0.7-1.49-1.52-1.93-2.52c-0.41-0.94-0.58-1.93-0.61-2.94
			C19.99,176.15,20,175.57,19.99,174.99z M24.43,177.68c-0.04-0.06-0.07-0.09-0.1-0.13c-0.22-0.34-0.44-0.67-0.67-1
			c-0.17-0.24-0.42-0.34-0.67-0.28c-0.44,0.11-0.62,0.58-0.36,0.97c0.39,0.59,0.78,1.18,1.18,1.77c0.32,0.47,0.78,0.49,1.14,0.04
			c0.45-0.57,0.91-1.14,1.37-1.71c0.35-0.44,0.71-0.88,1.06-1.33c0.22-0.29,0.18-0.66-0.09-0.87c-0.27-0.22-0.63-0.18-0.88,0.09
			c-0.03,0.04-0.07,0.08-0.1,0.12C25.68,176.12,25.06,176.89,24.43,177.68z"/>
		<path class="st50" d="M19.99,174.99c0,0.58,0,1.16,0.02,1.74c0.04,1.01,0.2,2,0.61,2.94c0.44,1,1.11,1.81,1.93,2.52
			c0.64,0.55,1.35,1.01,2.08,1.44c0.23,0.14,0.47,0.15,0.7,0.01c1.05-0.61,2.05-1.29,2.87-2.2c0.93-1.01,1.47-2.21,1.67-3.56
			c0.04-0.26,0.08-0.52,0.12-0.78c0,1.38,0,2.76,0,4.14c-0.04,0.04-0.09,0.07-0.12,0.11c-0.72,1.06-1.66,1.89-2.71,2.61
			c-0.38,0.26-0.77,0.5-1.17,0.74c-0.65,0.38-1.31,0.39-1.96,0.01c-0.99-0.57-1.95-1.2-2.76-2.03c-0.44-0.45-0.83-0.97-1.23-1.45
			c-0.43-0.69-0.77-1.43-0.96-2.22c-0.12-0.5-0.19-1.02-0.28-1.53c-0.02-0.83-0.03-1.66-0.05-2.5
			C19.16,174.99,19.58,174.99,19.99,174.99z"/>
		<path class="st51" d="M18.8,177.49c0.09,0.51,0.16,1.02,0.28,1.53c0.19,0.79,0.53,1.53,0.96,2.22c-1.2,0-2.39,0-3.59,0
			c-2.15,0-4.29,0-6.44,0c0-1.25,0-2.5,0-3.75C12.94,177.49,15.87,177.49,18.8,177.49z"/>
		<path class="st52" d="M14.37,183.74c0.4,0,0.79,0,1.19,0c0.4,0,0.68,0.26,0.69,0.62c0,0.37-0.28,0.63-0.69,0.63
			c-0.79,0-1.57,0-2.36,0c-0.42,0-0.7-0.26-0.7-0.63c0-0.37,0.28-0.62,0.7-0.62C13.59,183.74,13.98,183.74,14.37,183.74z"/>
		<path class="st48" d="M18.8,177.49c-2.93,0-5.86,0-8.79,0c0-0.42-0.02-0.85,0-1.27c0.02-0.7,0.54-1.21,1.25-1.23
			c0.43-0.01,0.86,0,1.29,0c2.07,0,4.13,0,6.2,0C18.76,175.83,18.78,176.66,18.8,177.49z"/>
	</g>
	<g transform="translate(0.000000,512.000000) scale(0.100000,-0.100000)">
		<path d="M1749.28,4608.48c-12.47-1.56-22.9-6.68-31.73-15.59c-7.93-7.97-12.7-16.41-15.44-27.39
			c-4.85-19.03-1.33-37.79,10.32-55.41c7.46-11.29,17.12-21.65,34.82-37.44c11.25-10.04,45.6-39.35,47.28-40.33
			c1.56-0.94,2.15-1.06,5.47-1.06s3.91,0.12,5.47,1.06c1.68,0.98,36.11,30.32,47.28,40.33c17.78,15.87,27.35,26.18,34.82,37.44
			c11.64,17.62,15.16,36.38,10.32,55.41c-2.74,10.98-7.5,19.42-15.44,27.39c-7.89,7.93-16.33,12.5-27.39,14.85
			c-5.55,1.17-15.79,1.29-20.63,0.2c-13.52-2.93-23.88-9.69-33.33-21.73l-1.09-1.37l-1.06,1.37c-9.34,11.8-19.54,18.56-32.55,21.53
			C1762.52,4608.64,1753.62,4609.03,1749.28,4608.48z M1762.33,4596.56c11.1-1.95,20.67-8.36,28.25-18.95
			c1.29-1.84,2.89-4.02,3.52-4.92c2.89-4.06,8.91-4.06,11.8,0c0.63,0.9,2.23,3.09,3.52,4.92c10.36,14.46,24.78,21.26,40.48,19.11
			c17.43-2.38,31.03-14.58,36.22-32.51c4.1-14.19,2.31-29.07-5.16-42.48c-6.25-11.22-16.69-22.98-34.86-39.27
			c-8.79-7.85-45.76-39.66-46.11-39.66c-0.39,0-37.2,31.69-46.11,39.66c-27.94,25.05-38.96,40.68-41.62,59.01
			c-1.72,11.84,0.74,24.58,6.72,34.62C1727.98,4591.21,1745.49,4599.49,1762.33,4596.56z"/>
	</g>
	<g transform="translate(0.000000,512.000000) scale(0.100000,-0.100000)">
		<path d="M549.28,3808.48c-12.47-1.56-22.9-6.68-31.73-15.59c-7.93-7.97-12.7-16.41-15.44-27.39
			c-4.85-19.03-1.33-37.79,10.32-55.41c7.46-11.29,17.12-21.65,34.82-37.44c11.25-10.04,45.6-39.35,47.28-40.33
			c1.56-0.94,2.15-1.05,5.47-1.05s3.91,0.12,5.47,1.05c1.68,0.98,36.11,30.32,47.28,40.33c17.78,15.87,27.35,26.18,34.82,37.44
			c11.65,17.62,15.16,36.38,10.32,55.41c-2.74,10.98-7.5,19.42-15.44,27.39c-7.89,7.93-16.33,12.5-27.39,14.85
			c-5.55,1.17-15.79,1.29-20.63,0.2c-13.52-2.93-23.88-9.69-33.33-21.73l-1.09-1.37l-1.06,1.37c-9.34,11.8-19.54,18.56-32.55,21.53
			C562.52,3808.64,553.62,3809.03,549.28,3808.48z"/>
	</g>
	<g transform="translate(0.000000,512.000000) scale(0.100000,-0.100000)">
		<path d="M992.58,3383.54c-23.06-2.74-44.43-13.39-67.14-33.47c-7.95-7.01-21.02-21.14-24.39-26.38c-1.41-2.19-1.41-5.25,0-7.44
			c1.8-2.82,9.4-11.63,14.8-17.15c19.3-19.89,40.79-33.82,61.07-39.62c8.81-2.51,13.27-3.09,23.1-3.09s14.29,0.59,23.1,3.09
			c23.76,6.81,49.87,25.33,70.7,50.23c5.72,6.81,6.19,7.63,6.19,10.26s-0.47,3.45-6.19,10.26c-20.71,24.7-46.74,43.26-70.31,50.11
			c-7.91,2.31-13.15,3.05-21.73,3.21C997.48,3383.65,993.33,3383.62,992.58,3383.54z M1009.61,3369.87
			c18.44-2.78,38.52-13.62,57.82-31.28c5.91-5.36,17.54-17.77,17.54-18.67c0-0.12-1.33-1.8-3.01-3.68
			c-22.78-26.07-48.7-42.63-72.34-46.19c-5.01-0.74-14.17-0.74-19.18,0c-17.03,2.58-35.19,11.86-53.24,27.17
			c-6.54,5.52-22.12,21.57-22.12,22.74c0,0.16,1.33,1.84,3.01,3.72c22.63,25.88,48.54,42.51,71.99,46.15
			C994.85,3370.58,1004.76,3370.58,1009.61,3369.87z"/>
		<path d="M994.54,3359.27c-16.95-3.09-29.01-14.13-33.12-30.3c-1.06-4.15-1.06-13.86,0-18.01c3.8-14.88,14.72-25.8,29.59-29.59
			c4.15-1.06,13.86-1.06,18.01,0c14.88,3.8,25.8,14.72,29.59,29.59c0.59,2.27,0.74,4.31,0.74,9c0,4.7-0.16,6.73-0.74,9
			c-3.72,14.68-14.33,25.45-29.01,29.44C1006.95,3359.15,996.97,3359.7,994.54,3359.27z M1006.28,3345.56
			c7.32-1.64,14.01-7.01,17.42-14.05c2.04-4.19,2.66-7.4,2.47-12.72c-0.2-5.05-1.17-8.46-3.52-12.45c-1.64-2.82-6.19-7.36-9-9
			c-8.26-4.85-18.99-4.85-27.25,0c-2.82,1.64-7.36,6.19-9,9c-4.85,8.26-4.85,18.99,0,27.25c1.64,2.82,6.19,7.36,9,9
			C992.31,3346.07,999.24,3347.13,1006.28,3345.56z"/>
	</g>
	<g transform="translate(0.000000,512.000000) scale(0.100000,-0.100000)">
		<path d="M1713.51,3389.75c-3.28-0.82-5.74-2.23-8.24-4.72c-2.54-2.54-4.1-5.31-4.8-8.71c-0.62-2.97-0.62-109.72,0-112.61
			c1.44-6.68,6.91-12.14,13.55-13.55c2.93-0.62,169.04-0.62,171.96,0c6.64,1.41,12.14,6.95,13.55,13.55
			c0.62,2.97,0.62,109.72,0,112.61c-1.44,6.72-6.87,12.14-13.55,13.55C1882.82,3390.53,1716.17,3390.41,1713.51,3389.75z
			 M1841.98,3340.67c-20.85-20.81-38.34-38.15-38.93-38.46c-1.37-0.7-4.72-0.7-6.09,0c-0.59,0.31-18.08,17.65-38.93,38.46
			l-37.88,37.91H1800h79.85L1841.98,3340.67z M1737.02,3294.75l-25.26-25.3v50.57v50.57l25.26-25.3l25.3-25.26L1737.02,3294.75z
			 M1888.25,3319.93v-50.49l-25.26,25.26l-25.3,25.3l25.19,25.19c13.86,13.86,25.22,25.19,25.26,25.19
			C1888.21,3370.38,1888.25,3347.66,1888.25,3319.93z M1779.66,3302.32c8.4-8.32,9.49-9.25,12.3-10.66l3.12-1.52h4.88
			c4.88,0,4.96,0,8,1.48c2.85,1.37,3.75,2.15,12.42,10.7l9.33,9.25l25.07-25.07l25.07-25.07H1800h-79.85l24.99,24.99
			c13.74,13.74,25.07,24.99,25.15,24.99C1770.4,3311.42,1774.62,3307.32,1779.66,3302.32z"/>
	</g>
	<g transform="translate(0.000000,512.000000) scale(0.100000,-0.100000)">
		<path d="M1303.61,3407.21c-4.28-2.16-4.84-7.69-1.21-11.24c0.99-0.95,10.68-9.47,21.48-18.89c10.81-9.38,19.71-17.25,19.8-17.46
			s-1.6-1.6-3.67-3.11c-10.16-7.35-24.9-21.18-33.37-31.43c-6.14-7.44-6.61-8.26-6.61-10.94c0-2.59,0.69-3.67,6.79-11.07
			c10.94-13.14,25.25-26.11,38.91-35.23c18.85-12.62,39.47-19.19,57.28-18.37c14.65,0.73,30.43,5.75,44.31,14.14
			c2.03,1.25,3.93,2.16,4.24,2.03c0.3-0.13,8.69-7.35,18.67-16.08c9.99-8.73,18.76-16.21,19.45-16.69c1.86-1.17,5.27-1.12,7.13,0.17
			c3.03,1.99,4.02,6.05,2.33,8.99c-0.48,0.82-15.26,14.01-32.85,29.35c-98.91,86.15-128.22,111.75-148.79,129.69
			c-3.42,2.98-6.79,5.75-7.57,6.18C1308.15,3408.21,1305.51,3408.21,1303.61,3407.21z M1363.31,3342.76l7.61-6.61l-1.47-2.72
			c-4.24-7.69-5.4-16.47-3.42-25.29c1.12-4.76,4.58-11.15,8.13-14.96c7.26-7.78,15.43-11.41,25.81-11.41c7.74,0,14.61,2.2,20.71,6.7
			l2.68,1.99l8.39-7.26c4.58-4.02,8.39-7.39,8.39-7.56c0.04-0.43-6.7-3.98-11.76-6.14c-5.45-2.33-11.37-4.15-17.16-5.27
			c-6.14-1.17-16.77-1.08-23.3,0.22c-23.04,4.54-47.81,21.18-70.03,47.03l-2.33,2.72l3.2,3.76c4.54,5.36,14.48,15.17,20.27,20.06
			c6.7,5.66,15.61,12.06,16.21,11.71C1355.48,3349.55,1359.16,3346.44,1363.31,3342.76z M1397.5,3312.98
			c8.26-7.22,14.91-13.31,14.74-13.53c-0.39-0.69-4.15-2.42-6.83-3.2c-1.86-0.56-3.67-0.69-6.7-0.56c-3.67,0.13-4.54,0.35-7.39,1.69
			c-10.59,5.06-15.09,16.38-10.76,27.06c0.56,1.47,1.08,2.16,1.43,1.99C1382.24,3326.25,1389.2,3320.2,1397.5,3312.98z"/>
		<path d="M1391.75,3378.55c-1.77-0.22-5.27-0.78-7.78-1.3c-11.07-2.25-13.83-3.89-14.18-8.56c-0.22-3.16,0.86-5.23,3.42-6.53
			c2.16-1.12,3.5-1.08,7.95,0.22c6.74,1.95,11.15,2.55,18.8,2.55c5.71,0,8.13-0.17,12.02-0.95c15.78-3.16,30.99-11.11,47.64-24.81
			c6.01-4.97,16.69-15.48,21.57-21.23l3.16-3.76l-3.16-3.76c-1.77-2.12-6.44-7.05-10.46-11.02c-3.98-3.98-7.44-7.74-7.65-8.34
			c-1.17-3.11,0-6.79,2.68-8.43c1.95-1.17,5.27-1.17,7.26,0.04c3.59,2.16,21.92,21.79,25.76,27.62c1.73,2.55,1.6,5.49-0.3,8.21
			c-5.75,8.21-22.18,25.2-31.95,33.03C1440.99,3371.98,1415.4,3381.23,1391.75,3378.55z"/>
	</g>
	<g transform="translate(0.000000,512.000000) scale(0.100000,-0.100000)">
		<path d="M594.19,4219.87c-22.96-2.91-40.77-17.35-47.71-38.65c-2.28-6.93-2.62-10.17-2.82-26.9l-0.25-15.4l-2.78-0.46
			c-6.77-1.04-11.92-5.27-14.57-11.96l-1-2.49l-0.12-42.76c-0.08-30.64,0-43.55,0.37-45.59c1.25-7.64,6.89-13.58,14.41-15.2
			c1.58-0.33,18.6-0.46,60.41-0.46c62.9,0,60.37-0.08,64.98,2.12c4.69,2.28,8.64,7.85,9.59,13.54c0.37,2.03,0.46,14.95,0.37,45.59
			l-0.12,42.76l-1,2.49c-2.66,6.68-7.81,10.92-14.57,11.96l-2.78,0.46l-0.25,15.4c-0.21,16.73-0.54,19.97-2.82,26.9
			c-4.61,14.16-14.57,25.91-27.61,32.55c-4.73,2.45-10.21,4.36-15.15,5.31C607.35,4219.75,597.09,4220.25,594.19,4219.87z
			 M609.05,4206.67c14.03-2.99,25.74-12.66,31.35-25.99c2.82-6.64,2.91-7.35,3.07-25.41l0.17-16.52H600h-43.64l0.17,16.52
			c0.12,15.32,0.21,16.69,1.04,19.64c2.41,8.55,6.27,14.95,12.54,20.88c7.02,6.6,14.66,10.09,25.53,11.63
			C597.97,4207.75,606.02,4207.29,609.05,4206.67z M659.37,4125.5c0.79-0.42,1.83-1.41,2.28-2.16c0.83-1.37,0.83-2.16,0.83-43.97
			c0-41.68,0-42.6-0.83-43.93c-0.46-0.75-1.58-1.7-2.49-2.16c-1.7-0.83-2.78-0.83-59.16-0.83s-57.46,0-59.16,0.83
			c-0.91,0.46-2.03,1.41-2.49,2.16c-0.83,1.33-0.83,2.24-0.83,43.93c0,42.06,0,42.56,0.83,44.01c0.5,0.79,1.49,1.79,2.28,2.16
			c1.37,0.71,5.07,0.75,59.37,0.75C655.72,4126.29,658,4126.25,659.37,4125.5z"/>
		<path d="M595.02,4106.86c-1.49-0.37-3.53-1.2-4.57-1.83c-8.22-4.82-11.46-15.49-7.39-24.12c1.79-3.74,4.77-6.85,8.18-8.47
			l2.49-1.16l0.04-7.68c0-6.48,0.12-7.93,0.75-9.13c2.03-4.11,8.93-4.11,10.96,0c0.62,1.2,0.75,2.66,0.75,9.13l0.04,7.68l2.49,1.16
			c5.44,2.57,9.38,8.51,9.8,14.7c0.66,9.67-5.02,17.69-14.03,19.85C601.12,4107.77,598.38,4107.73,595.02,4106.86z M603.82,4093.86
			c3.45-2.45,2.99-8.76-0.75-10.55c-1.7-0.79-4.44-0.79-6.14,0c-3.49,1.66-4.19,7.64-1.16,10.3
			C597.67,4095.36,601.58,4095.44,603.82,4093.86z"/>
	</g>
	<g transform="translate(0.000000,512.000000) scale(0.100000,-0.100000)">
		<path d="M2191.43,5019.49c-10.68-1.64-20.22-6.73-27.69-14.67c-8.21-8.72-12.48-18.81-13.06-30.9
			c-0.82-16.9,7.47-33.05,21.79-42.4c7.04-4.62,13.81-6.96,22.02-7.63c15.22-1.17,28.2,3.6,38.68,14.28
			c10.25,10.44,14.82,23.31,13.57,38.1c-1.1,12.67-6.69,23.59-16.39,31.96c-7.67,6.57-14.71,9.86-24.45,11.27
			C2201.21,5020.15,2195.73,5020.19,2191.43,5019.49z M2208.09,5007.2c6.14-1.56,10.76-4.26,15.92-9.23
			c6.73-6.38,10.13-13.42,11.03-22.53c1.06-10.8-2.27-20.65-9.58-28.48c-4.54-4.85-11.23-8.96-16.9-10.4
			c-8.41-2.11-18.42-1.21-25.62,2.35c-9.82,4.85-17.09,13.92-19.75,24.64c-1.02,4.11-0.9,13.38,0.23,17.6
			c3.01,11.34,12.87,21.87,23.82,25.42C2193.19,5008.5,2202.07,5008.77,2208.09,5007.2z"/>
		<path d="M2155.91,4923.03c-5.98-0.63-12.16-2.89-17.05-6.18c-12.2-8.29-20.1-26.83-21.94-51.48c-1.02-13.85-0.2-20.69,3.36-27.85
			c1.96-3.99,5.67-8.37,9.47-11.19c2.89-2.11,7.74-4.3,12.01-5.4l3.52-0.94h54.76h54.76l3.52,0.9c12.36,3.25,21,11.58,24.09,23.35
			c1.6,6.06,1.41,20.54-0.47,31.96c-4.11,25.42-14.51,40.68-30.98,45.45c-3.75,1.1-10.48,1.92-12.48,1.53
			c-1.92-0.35-4.58-1.76-10.6-5.63c-6.49-4.19-7.51-4.73-12.36-6.49c-5.71-2.07-9.97-2.89-15.25-2.89c-5.48,0-9.7,0.78-15.25,2.74
			c-5.24,1.88-5.48,1.99-13.69,7.2c-4.3,2.74-7.51,4.5-8.76,4.85C2160.37,4923.5,2160.37,4923.5,2155.91,4923.03z M2166.08,4907.58
			c7.35-4.73,10.44-6.26,16.9-8.37c16.82-5.52,33.99-2.86,50.18,7.74c7.31,4.81,7.16,4.73,10.25,4.34
			c14.2-1.8,23.08-13.73,26.83-36.14c1.53-9.23,1.99-22.1,0.98-26.99c-1.64-7.86-6.96-13.42-15.1-15.72
			c-2.35-0.67-5.44-0.7-56.09-0.7c-50.77,0-53.7,0.04-56.13,0.7c-5.83,1.64-10.87,5.63-13.22,10.44c-2.03,4.15-2.54,7.63-2.23,16.04
			c0.27,8.49,0.67,12.44,2.03,19.36c1.02,5.4,3.4,13.06,5.08,16.39c5.05,10.01,11.89,15.49,20.77,16.62
			c1.45,0.2,2.78,0.35,2.93,0.39C2159.43,4911.69,2162.48,4909.85,2166.08,4907.58z"/>
	</g>
	<g transform="translate(0.000000,512.000000) scale(0.100000,-0.100000)">
		<path d="M2226.19,4619.78c-12.93-1.29-24.5-5.74-34.77-13.36c-4.18-3.09-11.49-10.55-14.46-14.77
			c-13.21-18.83-16.17-42.31-8.05-63.88l1.37-3.63l-35.12-35.16l-35.16-35.16v-16.92v-16.88h16.92h16.88l5.39,5.39l5.35,5.35v6.37
			v6.33h6.37h6.33l6.76,6.76l6.72,6.72v5.59v5.55h5.55h5.59l11.13,11.13l11.13,11.1l3.63-1.37c8.17-3.05,15.71-4.45,24.5-4.45
			c11.25,0,19.89,2.03,30.08,7.07c33.13,16.29,47.04,56.53,31.02,89.82c-10.31,21.45-30.36,35.67-53.95,38.25
			C2235.84,4620.02,2229.28,4620.09,2226.19,4619.78z M2243.46,4607.16c25.16-5.31,43.44-26.68,44.73-52.31
			c1.17-23.48-12.38-44.97-34.34-54.42c-6.92-2.97-13.67-4.3-22-4.26c-8.99,0-15.78,1.64-24.77,5.94c-2.66,1.25-5,2.31-5.27,2.31
			c-0.23,0-5.98-5.55-12.74-12.31l-12.31-12.31h-5.9c-3.24,0-7.23-0.12-8.87-0.23l-3.01-0.27v-8.63v-8.63l-3.44-3.44l-3.4-3.4h-4.34
			c-2.38,0-6.72-0.12-9.65-0.27l-5.35-0.23v-9.42v-9.38l-2.03-2.07l-2.03-2.07h-8.52h-8.52v8.67v8.71l36.33,36.22
			c20,19.92,36.33,36.41,36.33,36.65s-0.78,1.99-1.76,3.91c-3.91,7.77-5.78,14.22-6.41,21.88c-1.64,20.39,7.89,39.81,25.16,51.26
			c7.27,4.81,15.08,7.74,24.03,8.91C2229.51,4608.49,2239.16,4608.06,2243.46,4607.16z"/>
		<path d="M2241.93,4588.41c-7.5-1.37-13.67-5.98-16.92-12.7c-1.76-3.71-2.34-6.21-2.34-10.24c0-9.53,6.33-18.44,15.35-21.6
			c3.36-1.17,9.3-1.48,12.93-0.63c7.7,1.8,14.03,7.7,16.53,15.35c1.37,4.14,1.45,9.65,0.2,13.6c-2.23,7.19-8.2,13.28-15.16,15.43
			C2249.63,4588.53,2244.67,4588.88,2241.93,4588.41z M2250.69,4575.67c6.76-3.28,8.32-12.42,3.01-17.89
			c-1.99-2.03-4.22-3.05-7.23-3.28c-3.71-0.27-6.21,0.66-8.79,3.2c-7.38,7.38-1.56,20.04,8.83,19.14
			C2247.68,4576.77,2249.55,4576.22,2250.69,4575.67z"/>
	</g>
	<g>
		<path class="st53" d="M259.4,10c0.39,0,0.78,0,1.17,0c0.14,0.02,0.28,0.03,0.42,0.05c2.11,0.24,3.99,1.03,5.58,2.45
			c2.11,1.88,3.24,4.25,3.38,7.07c0.09,1.8-0.28,3.52-1.16,5.1c-1.83,3.27-4.64,5.05-8.39,5.28c-1.8,0.11-3.52-0.29-5.1-1.16
			c-2.81-1.55-4.53-3.91-5.14-7.07c-0.07-0.38-0.11-0.77-0.16-1.15c0-0.39,0-0.78,0-1.17c0.01-0.06,0.03-0.11,0.03-0.17
			c0.1-1.39,0.47-2.71,1.14-3.93c1.55-2.81,3.91-4.53,7.07-5.14C258.62,10.08,259.01,10.05,259.4,10z M268.53,19.98
			c0.01-4.72-3.82-8.55-8.55-8.55c-4.72,0-8.55,3.82-8.55,8.55c-0.01,4.72,3.82,8.55,8.55,8.56
			C264.7,28.53,268.52,24.71,268.53,19.98z"/>
		<path class="st54" d="M250,20.57c0.05,0.38,0.08,0.77,0.16,1.15c0.61,3.16,2.33,5.52,5.14,7.07c1.58,0.87,3.3,1.27,5.1,1.16
			c3.75-0.23,6.55-2.01,8.39-5.28c0.88-1.58,1.25-3.3,1.16-5.1c-0.14-2.82-1.27-5.19-3.38-7.07c-1.59-1.42-3.46-2.21-5.58-2.45
			c-0.14-0.02-0.28-0.03-0.42-0.05c3.14,0,6.29,0,9.43,0c0,6.67,0,13.33,0,20c-6.67,0-13.33,0-20,0C250,26.86,250,23.71,250,20.57z"
			/>
		<path class="st54" d="M259.4,10c-0.38,0.05-0.77,0.08-1.15,0.16c-3.16,0.61-5.52,2.33-7.07,5.14c-0.67,1.22-1.04,2.54-1.14,3.93
			c0,0.06-0.02,0.11-0.03,0.17c0-3.13,0-6.26,0-9.4C253.13,10,256.26,10,259.4,10z"/>
		<path class="st54" d="M268.53,19.98c-0.01,4.73-3.84,8.55-8.56,8.55c-4.72,0-8.55-3.84-8.55-8.56c0.01-4.73,3.83-8.55,8.55-8.55
			C264.71,11.43,268.54,15.27,268.53,19.98z M257.86,22.55c-0.08-0.08-0.13-0.13-0.18-0.18c-0.69-0.69-1.38-1.38-2.07-2.07
			c-0.05-0.05-0.1-0.1-0.15-0.15c-0.24-0.21-0.57-0.24-0.83-0.08c-0.26,0.15-0.41,0.45-0.33,0.75c0.05,0.17,0.15,0.33,0.28,0.45
			c0.88,0.89,1.77,1.78,2.66,2.66c0.43,0.43,0.8,0.43,1.22,0c2.31-2.31,4.61-4.61,6.92-6.92c0.06-0.06,0.13-0.13,0.18-0.2
			c0.16-0.24,0.17-0.49,0.03-0.74c-0.14-0.25-0.36-0.37-0.64-0.36c-0.24,0-0.41,0.13-0.57,0.29c-2.11,2.11-4.23,4.23-6.34,6.34
			C257.97,22.41,257.93,22.47,257.86,22.55z"/>
		<path class="st53" d="M257.86,22.55c0.06-0.08,0.11-0.14,0.17-0.2c2.11-2.11,4.23-4.23,6.34-6.34c0.16-0.16,0.33-0.29,0.57-0.29
			c0.29,0,0.5,0.12,0.64,0.36c0.14,0.25,0.12,0.5-0.03,0.74c-0.05,0.08-0.12,0.14-0.18,0.2c-2.31,2.31-4.61,4.61-6.92,6.92
			c-0.43,0.43-0.8,0.42-1.22,0c-0.89-0.89-1.78-1.77-2.66-2.66c-0.12-0.12-0.23-0.29-0.28-0.45c-0.08-0.3,0.07-0.6,0.33-0.75
			c0.26-0.15,0.59-0.12,0.83,0.08c0.05,0.05,0.1,0.1,0.15,0.15c0.69,0.69,1.38,1.38,2.07,2.07
			C257.73,22.42,257.78,22.47,257.86,22.55z"/>
	</g>
	<g>
		<g>
			<g>
				<path class="st55" d="M256,106c-1.1,0-1.99,0.89-1.99,2c0,1.11,0.88,2,1.99,2c1.1,0,2-0.89,2-2C258,106.89,257.1,106,256,106z"
					/>
				<path class="st55" d="M257.1,101h7.45c0.75,0,1.4-0.41,1.75-1.03l3.58-6.49c0.08-0.14,0.13-0.31,0.13-0.48c0-0.56-0.45-1-1-1
					h-14.79l-0.95-2H250v2h2l3.59,7.58l-1.35,2.45c-0.16,0.29-0.25,0.62-0.25,0.97c0,1.1,0.9,2,2,2h12v-2h-11.57
					c-0.14,0-0.25-0.11-0.25-0.25c0-0.04,0.01-0.08,0.03-0.12L257.1,101z"/>
				<path class="st55" d="M266,106c-1.1,0-1.99,0.89-1.99,2c0,1.11,0.89,2,1.99,2c1.11,0,2-0.9,2-2C268,106.9,267.11,106,266,106z"
					/>
			</g>
		</g>
	</g>
	<g>
		<path d="M257.59,179.99c-0.33-0.3-0.69-0.56-0.98-0.89c-1.4-1.57-1.81-3.39-1.13-5.37c0.69-1.98,2.13-3.18,4.2-3.52
			c2.99-0.49,5.72,1.57,6.13,4.58c0.39,2.81-1.61,5.52-4.41,5.95c-0.51,0.08-1.04,0.06-1.55,0.12c-3.06,0.37-5.15,2-6.26,4.88
			c-0.29,0.74-0.4,1.51-0.41,2.3c-0.01,0.51,0.25,0.77,0.76,0.77c2.14,0,4.28,0,6.43,0c0.08,0,0.17,0,0.25,0.01
			c0.33,0.06,0.56,0.35,0.55,0.68c-0.01,0.33-0.27,0.6-0.6,0.64c-0.03,0-0.07,0-0.1,0c-2.2,0-4.41,0.01-6.61,0
			c-1.13,0-1.99-0.89-2-2.02c-0.01-3.53,2.27-6.83,5.57-8.05C257.48,180.03,257.54,180,257.59,179.99z M260.48,171.49
			c-2.18-0.01-3.97,1.78-3.98,3.98c-0.01,2.18,1.78,3.99,3.96,4c2.2,0.01,4.01-1.77,4.02-3.94
			C264.5,173.29,262.73,171.5,260.48,171.49z"/>
		<path d="M264.82,184.47c0-0.8,0-1.57,0-2.34c0-0.35,0.27-0.63,0.6-0.66c0.33-0.03,0.63,0.19,0.71,0.52
			c0.02,0.09,0.02,0.18,0.02,0.27c0,0.73,0,1.45,0,2.21c0.08,0,0.16,0,0.23,0c0.67,0,1.34,0,2.02,0c0.44,0,0.74,0.27,0.75,0.66
			c0,0.39-0.3,0.67-0.74,0.67c-0.74,0-1.48,0-2.25,0c0,0.08,0,0.15,0,0.23c0,0.7,0,1.4,0,2.1c0,0.35-0.26,0.63-0.59,0.67
			c-0.33,0.04-0.64-0.18-0.71-0.51c-0.02-0.08-0.02-0.16-0.02-0.25c0-0.67,0-1.34,0-2.02c0-0.07,0-0.13,0-0.22
			c-0.24,0-0.46,0-0.68,0c-0.54,0-1.08,0-1.62,0c-0.4,0-0.7-0.3-0.69-0.67c0-0.37,0.3-0.65,0.69-0.66c0.69,0,1.37,0,2.06,0
			C264.65,184.47,264.73,184.47,264.82,184.47z"/>
	</g>
	<g>
		<path d="M309.49,181.11c-0.05,0.37-0.08,0.73-0.15,1.1c-0.54,2.83-2.05,5-4.49,6.51c-1.58,0.98-3.33,1.41-5.19,1.37
			c-3.78-0.08-7.25-2.5-8.62-6.03c-0.14-0.37,0-0.74,0.34-0.88c0.35-0.14,0.71,0.02,0.87,0.4c0.61,1.51,1.57,2.75,2.9,3.69
			c1.79,1.25,3.77,1.73,5.92,1.42c3.48-0.49,6.22-3.08,6.94-6.51c0.91-4.37-1.9-8.74-6.26-9.71c-3.97-0.88-7.9,1.15-9.46,4.9
			c-0.11,0.26-0.25,0.48-0.55,0.53c-0.24,0.04-0.45-0.03-0.61-0.22c-0.17-0.2-0.2-0.43-0.1-0.68c0.27-0.67,0.6-1.32,1.02-1.91
			c1.77-2.5,4.19-3.9,7.24-4.11c4.84-0.33,9.13,3,10.04,7.75c0.07,0.39,0.11,0.8,0.17,1.19
			C309.49,180.33,309.49,180.72,309.49,181.11z"/>
		<path d="M301.16,181.18c-0.12,0-0.19,0-0.27,0c-3.53,0-7.07,0-10.6,0c-0.12,0-0.24-0.01-0.35-0.04c-0.27-0.08-0.46-0.35-0.45-0.64
			c0.01-0.28,0.2-0.54,0.47-0.6c0.11-0.03,0.22-0.03,0.33-0.03c3.53,0,7.07,0,10.6,0c0.07,0,0.15,0,0.27,0
			c-0.08-0.09-0.12-0.14-0.17-0.19c-0.72-0.72-1.44-1.44-2.15-2.15c-0.2-0.2-0.26-0.43-0.18-0.7c0.08-0.25,0.27-0.4,0.53-0.43
			c0.23-0.04,0.42,0.05,0.58,0.22c0.35,0.35,0.7,0.7,1.05,1.05c0.79,0.79,1.58,1.57,2.36,2.36c0.3,0.3,0.31,0.7,0.02,0.99
			c-1.14,1.14-2.28,2.27-3.41,3.41c-0.17,0.17-0.35,0.27-0.59,0.23c-0.26-0.04-0.44-0.18-0.53-0.43c-0.08-0.24-0.03-0.46,0.13-0.65
			c0.04-0.04,0.08-0.08,0.12-0.13c0.69-0.69,1.38-1.38,2.07-2.07C301.03,181.32,301.08,181.27,301.16,181.18z"/>
	</g>
	<g>
		<path class="st56" d="M330,15.37c0-1.06,0.31-1.97,0.96-2.63l1.14,1.14c-1.26,1.26-0.16,5.18,3.44,8.78s7.52,4.71,8.78,3.44
			l1.14,1.14c-2.13,2.13-6.99,0.62-11.05-3.45C331.59,20.98,330,17.78,330,15.37z"/>
		<path class="st57" d="M337.16,28.22c-1.06,0-1.97-0.31-2.63-0.96l1.14-1.14c1.26,1.26,5.18,0.16,8.78-3.44s4.71-7.52,3.44-8.78
			l1.14-1.14c2.13,2.13,0.62,6.99-3.45,11.05C342.77,26.63,339.57,28.22,337.16,28.22z"/>
		<path class="st58" d="M345.97,22.18c-0.69-1.99-2.1-4.11-3.97-5.98c-4.06-4.06-8.92-5.58-11.05-3.45l0,0
			c-0.15,0.15-0.02,0.53,0.29,0.84c0.31,0.31,0.69,0.44,0.84,0.29c1.26-1.26,5.18-0.16,8.78,3.45c1.7,1.7,2.97,3.61,3.59,5.37
			c0.54,1.54,0.48,2.79-0.14,3.41l0,0c-0.15,0.15-0.02,0.53,0.29,0.84c0.31,0.31,0.69,0.44,0.84,0.29
			C346.54,26.16,346.72,24.36,345.97,22.18z"/>
		<path class="st59" d="M349.03,12.76c-1.09-1.09-2.9-1.28-5.07-0.52c-1.98,0.69-4.11,2.1-5.98,3.97
			c-4.06,4.06-5.58,8.92-3.45,11.05l0,0c0.15,0.15,0.53,0.02,0.84-0.29c0.31-0.31,0.44-0.69,0.29-0.84
			c-1.27-1.26-0.16-5.18,3.45-8.78c1.7-1.7,3.61-2.97,5.37-3.59c1.54-0.54,2.79-0.48,3.42,0.14l0,0c0.15,0.15,0.53,0.02,0.84-0.29
			C349.05,13.29,349.18,12.91,349.03,12.76z"/>
	</g>
	<g>
		<polygon id="Fill-17" class="st60" points="298.57,15.97 297.46,20.05 303.81,15.95 299.66,31.43 303.87,31.43 310,8.57 		"/>
		<path id="Fill-19" class="st61" d="M291.74,24.92L290,31.43h8.64c0,0,3.53-13.23,3.53-13.24
			C302.17,18.2,291.74,24.92,291.74,24.92"/>
	</g>
	<g>
		<path class="st62" d="M301.34,64.16c0-0.15,0-0.3,0-0.45c0-1.96,0-3.92,0-5.89c0-0.04,0-0.09,0-0.14c0.02,0,0.04-0.01,0.05-0.01
			c0.37,0,0.73,0,1.1,0c0.06,0,0.08,0.02,0.09,0.08c0.01,0.08,0.03,0.16,0.06,0.26c0.07-0.05,0.13-0.11,0.2-0.15
			c0.69-0.47,1.6-0.33,2.17,0.33c0.32,0.37,0.49,0.81,0.57,1.29c0.1,0.65,0.06,1.3-0.17,1.92c-0.21,0.55-0.57,0.97-1.16,1.15
			c-0.5,0.15-0.97,0.1-1.4-0.2c-0.03-0.02-0.06-0.04-0.1-0.06c0,0.05,0,0.09,0,0.12c0,0.44-0.01,0.88,0,1.32
			c0,0.09-0.02,0.14-0.12,0.15c-0.39,0.08-0.79,0.16-1.18,0.25c-0.02,0-0.04,0.01-0.06,0.02C301.37,64.16,301.36,64.16,301.34,64.16
			z M304.25,60.1c0-0.33-0.07-0.66-0.28-0.95c-0.28-0.38-0.82-0.43-1.17-0.11c-0.04,0.03-0.06,0.1-0.06,0.15c0,0.63,0,1.27,0.01,1.9
			c0,0.05,0.03,0.11,0.07,0.14c0.39,0.34,0.95,0.25,1.22-0.19C304.2,60.75,304.25,60.45,304.25,60.1z"/>
		<path class="st62" d="M300.84,55.84c0,0.37,0,0.75,0,1.13c-0.47,0.1-0.93,0.2-1.39,0.3c0-0.02-0.01-0.04-0.01-0.05
			c0-0.33,0-0.67,0-1c0-0.06,0.02-0.08,0.08-0.09c0.41-0.08,0.82-0.17,1.23-0.26c0.02,0,0.04-0.01,0.05-0.02
			C300.81,55.84,300.82,55.84,300.84,55.84z"/>
		<path class="st62" d="M310,60.63c-0.92,0-1.81,0-2.71,0c-0.01,0.36,0.24,0.69,0.61,0.79c0.37,0.1,0.75,0.07,1.12-0.01
			c0.23-0.05,0.46-0.14,0.69-0.21c0,0.01,0,0.03,0,0.05c0,0.32,0,0.64,0,0.95c0,0.05,0,0.09-0.06,0.11
			c-0.8,0.37-1.63,0.45-2.47,0.14c-0.49-0.18-0.84-0.52-1.04-1c-0.4-0.95-0.39-1.91,0.1-2.83c0.62-1.14,1.87-1.21,2.6-0.85
			c0.49,0.25,0.78,0.66,0.96,1.17c0.14,0.4,0.19,0.81,0.19,1.23C310,60.33,310,60.47,310,60.63z M308.69,59.61
			c-0.01-0.31-0.07-0.59-0.34-0.77c-0.23-0.16-0.48-0.15-0.72-0.01c-0.29,0.18-0.36,0.46-0.37,0.78
			C307.74,59.61,308.21,59.61,308.69,59.61z"/>
		<path class="st62" d="M290.07,61.03c0.17,0.07,0.33,0.15,0.49,0.21c0.29,0.11,0.59,0.2,0.9,0.21c0.14,0.01,0.28-0.01,0.41-0.03
			c0.12-0.02,0.2-0.1,0.23-0.23c0.03-0.13-0.01-0.25-0.12-0.31c-0.16-0.09-0.33-0.17-0.5-0.25c-0.25-0.11-0.51-0.19-0.75-0.31
			c-0.79-0.4-0.87-1.15-0.61-1.78c0.2-0.49,0.6-0.75,1.09-0.87c0.67-0.16,1.34-0.08,1.98,0.16c0.03,0.01,0.05,0.05,0.05,0.08
			c0,0.41,0,0.82,0,1.24c-0.04-0.02-0.07-0.03-0.11-0.05c-0.41-0.19-0.85-0.3-1.3-0.3c-0.07,0-0.15,0.01-0.22,0.03
			c-0.11,0.03-0.19,0.09-0.21,0.21c-0.02,0.12,0.02,0.22,0.12,0.28c0.13,0.08,0.27,0.14,0.41,0.2c0.26,0.11,0.53,0.19,0.78,0.31
			c0.54,0.26,0.82,0.69,0.81,1.3c-0.02,0.62-0.31,1.05-0.87,1.31c-0.34,0.16-0.7,0.21-1.07,0.21c-0.5,0-0.97-0.09-1.44-0.28
			c-0.07-0.03-0.1-0.06-0.1-0.14c0-0.37,0-0.74,0-1.12C290.07,61.09,290.07,61.06,290.07,61.03z"/>
		<path class="st62" d="M293.81,56.77c0.46-0.1,0.9-0.19,1.35-0.29c0,0.4,0,0.79,0,1.2c0.35,0,0.69,0,1.04,0c0,0.4,0,0.78,0,1.18
			c-0.34,0-0.68,0-1.04,0c0,0.05-0.01,0.08-0.01,0.12c0,0.61,0,1.21,0,1.82c0,0.07,0,0.14,0.01,0.21c0.05,0.29,0.27,0.44,0.6,0.41
			c0.14-0.01,0.28-0.05,0.43-0.07c0,0.02,0.01,0.04,0.01,0.07c0,0.32,0,0.64,0,0.96c0,0.04-0.03,0.09-0.05,0.1
			c-0.56,0.19-1.12,0.26-1.66-0.04c-0.45-0.25-0.68-0.66-0.69-1.17c-0.01-0.61,0-1.21,0-1.82c0-0.86,0-1.72,0-2.58
			C293.81,56.86,293.81,56.82,293.81,56.77z"/>
		<path class="st62" d="M298.04,62.55c-0.47,0-0.92,0-1.38,0c0-1.62,0-3.23,0-4.86c0.07,0,0.14,0,0.21,0c0.3,0,0.6,0,0.89,0
			c0.07,0,0.1,0.02,0.11,0.09c0.02,0.1,0.04,0.2,0.07,0.31c0.02-0.03,0.04-0.04,0.05-0.07c0.25-0.38,0.68-0.44,1.04-0.35
			c0.02,0.01,0.06,0.04,0.06,0.06c0,0.38,0,0.75,0,1.13c0,0.03,0,0.06,0,0.08c-0.18,0-0.36-0.01-0.53,0
			c-0.09,0.01-0.19,0.06-0.27,0.1c-0.17,0.09-0.25,0.21-0.25,0.42c0.01,0.98,0.01,1.96,0.01,2.94
			C298.04,62.45,298.04,62.49,298.04,62.55z"/>
		<path class="st62" d="M300.83,62.55c-0.46,0-0.92,0-1.38,0c0-1.62,0-3.23,0-4.85c0.46,0,0.92,0,1.38,0
			C300.83,59.31,300.83,60.92,300.83,62.55z"/>
	</g>
</g>
<g id="Layer_2">
	<g>
	</g>
	<g>
		<path class="st63" d="M227.23,170c0.92,0,1.85,0,2.77,0c0,6.67,0,13.33,0,20c-6.67,0-13.33,0-20,0c0-6.67,0-13.33,0-20
			c2.79,0,5.59,0,8.38,0c-0.03,0.01-0.06,0.03-0.1,0.04c-1.32,0.25-2.3,1.38-2.31,2.69c-0.25,0.26-0.37,0.55-0.29,0.91
			c0.12,0.49,0.48,0.73,1.1,0.73c0.15,0.2,0.27,0.44,0.45,0.61c0.55,0.52,1.22,0.76,1.98,0.59c0.23-0.05,0.44-0.19,0.66-0.29
			c0.48,0.01,0.95,0.02,1.43,0.02c0.17,0,0.28-0.14,0.28-0.33c0-0.28,0-0.55,0-0.83c0.43-0.45,0.43-0.95,0-1.41
			c-0.02-1.19-0.85-2.28-2-2.61c-0.14-0.04-0.28-0.08-0.42-0.12c2.44,0,4.89,0,7.33,0c-0.08,0.03-0.15,0.06-0.23,0.08
			c-1.17,0.29-1.97,1.42-1.87,2.63c0.11,1.21,1.1,2.2,2.3,2.28c1.19,0.08,2.27-0.68,2.59-1.82c0.32-1.15-0.21-2.37-1.29-2.9
			C227.75,170.15,227.49,170.09,227.23,170z M212.84,180.6c-0.2,0-0.41,0-0.62,0c0,0.23,0,0.43,0,0.63c-0.4,0-0.81,0-1.21,0
			c-0.23,0-0.34,0.12-0.35,0.35c0,0.18,0,0.35,0,0.53c0,0.23,0.07,0.31,0.31,0.37c0,0.61,0,1.22,0,1.83c0,0.4,0.26,0.66,0.66,0.66
			c0.21,0,0.42,0,0.65,0c0.08,1.67,0.17,3.33,0.25,4.98c0.43,0,0.84,0,1.25,0c0.08-1.67,0.17-3.32,0.25-4.97c0.33,0,0.64,0,0.96,0
			c0.33,1.42,0.66,2.84,0.99,4.25c0.12,0.49,0.61,0.79,1.11,0.69c0.46-0.09,0.81-0.57,0.72-1.06c-0.23-1.21-0.45-2.41-0.69-3.62
			c-0.02-0.12-0.01-0.2,0.09-0.26c1.04,0,2.08,0,3.12,0c0.03,0.07,0.11,0.16,0.1,0.22c-0.19,1.03-0.4,2.06-0.59,3.09
			c-0.05,0.27-0.13,0.55-0.11,0.82c0.04,0.47,0.42,0.8,0.84,0.82c0.52,0.02,0.88-0.25,1-0.75c0.33-1.4,0.66-2.8,0.98-4.19
			c0.11,0,0.22,0,0.33,0c0.08,1.67,0.17,3.32,0.25,4.98c0.42,0,0.83,0,1.25,0c0.08-1.66,0.17-3.31,0.25-4.98c0.22,0,0.42,0,0.63,0
			c0.42,0,0.68-0.25,0.68-0.68c0-0.6,0-1.21,0-1.81c0.24-0.06,0.31-0.14,0.31-0.37c0-0.13,0-0.26,0-0.39c0-0.41-0.07-0.49-0.48-0.49
			c-1.4,0-2.8,0-4.2-0.01c0-0.13,0-0.26,0.01-0.39c0.1-0.04,0.19-0.08,0.29-0.11c0.53-0.21,1.06-0.41,1.58-0.65
			c0.54-0.25,0.62-0.89,0.2-1.29c-0.77-0.74-1.55-1.48-2.32-2.22c-0.23-0.22-0.48-0.33-0.8-0.32c-1.21,0.01-2.41,0-3.62,0
			c0-0.19,0-0.39,0-0.58c-0.01-0.4-0.26-0.66-0.66-0.66c-1.64,0-3.27,0-4.91,0c-0.41,0-0.67,0.26-0.67,0.67c0,1.21,0,2.43,0,3.64
			c0,0.42,0.26,0.67,0.68,0.68c0.55,0,1.1,0,1.66,0C212.95,180.19,212.9,180.39,212.84,180.6z"/>
		<path class="st64" d="M227.23,170c0.25,0.09,0.52,0.15,0.76,0.27c1.08,0.53,1.62,1.75,1.29,2.9c-0.32,1.14-1.4,1.9-2.59,1.82
			c-1.21-0.08-2.2-1.07-2.3-2.28c-0.1-1.2,0.7-2.34,1.87-2.63c0.08-0.02,0.15-0.05,0.23-0.08C226.74,170,226.99,170,227.23,170z
			 M227.19,171.71c0-0.23,0-0.47,0-0.7c0-0.25-0.11-0.39-0.31-0.39c-0.2,0-0.31,0.14-0.31,0.38c0,0.4,0.01,0.8-0.01,1.21
			c0,0.09-0.04,0.19-0.1,0.25c-0.23,0.25-0.49,0.49-0.73,0.73c-0.14,0.14-0.14,0.33-0.01,0.45c0.13,0.13,0.31,0.13,0.45-0.01
			c0.13-0.12,0.24-0.26,0.37-0.37C227.06,172.87,227.37,172.4,227.19,171.71z"/>
		<path class="st65" d="M215.97,172.73c0.02-1.3,0.99-2.44,2.31-2.69c0.03-0.01,0.07-0.03,0.1-0.04c0.26,0,0.52,0,0.78,0
			c0.14,0.04,0.28,0.08,0.42,0.12c1.14,0.33,1.97,1.42,2,2.61c-0.19-0.16-0.41-0.24-0.66-0.23c-0.01-0.06-0.01-0.12-0.02-0.17
			c-0.31-1.33-1.72-2.06-2.98-1.52c-0.73,0.32-1.19,0.88-1.3,1.69C216.38,172.48,216.16,172.58,215.97,172.73z"/>
		<path class="st66" d="M220.33,184.97c-1.04,0-2.08,0-3.12,0c-0.74,0-1.48,0-2.23,0c-0.31,0-0.62,0-0.96,0
			c-0.08,1.65-0.17,3.3-0.25,4.97c-0.41,0-0.81,0-1.25,0c-0.08-1.65-0.17-3.3-0.25-4.98c-0.22,0-0.44,0-0.65,0
			c-0.4,0-0.66-0.26-0.66-0.66c0-0.61,0-1.22,0-1.83c3.18,0,6.36,0,9.54,0c1.81,0,3.62,0,5.43,0c0,0.6,0,1.21,0,1.81
			c0,0.43-0.25,0.68-0.68,0.68c-0.21,0-0.41,0-0.63,0c-0.08,1.67-0.17,3.32-0.25,4.98c-0.42,0-0.82,0-1.25,0
			c-0.08-1.66-0.17-3.31-0.25-4.98c-0.12,0-0.22,0-0.33,0C221.81,184.98,221.07,184.98,220.33,184.97z"/>
		<path class="st67" d="M213,179.98c-0.55,0-1.1,0-1.66,0c-0.43,0-0.68-0.25-0.68-0.68c0-1.21,0-2.43,0-3.64
			c0-0.42,0.25-0.67,0.67-0.67c1.64,0,3.27,0,4.91,0c0.4,0,0.66,0.26,0.66,0.66c0,0.19,0,0.39,0,0.58c0,1.02,0,2.04,0,3.06
			c0,0.44-0.25,0.69-0.69,0.69c-0.54,0-1.08,0-1.62,0.01c-0.03-0.1-0.06-0.19-0.09-0.29c-0.07-0.27-0.15-0.34-0.43-0.34
			c-0.1,0-0.21,0-0.31,0c-0.6,0-0.61-0.04-0.76,0.57C213.01,179.94,213.01,179.96,213,179.98z M213.77,178.11
			c0.34,0.01,0.63-0.26,0.64-0.6c0.01-0.35-0.26-0.64-0.61-0.65c-0.34-0.01-0.63,0.26-0.64,0.6
			C213.14,177.8,213.42,178.1,213.77,178.11z"/>
		<path class="st68" d="M214.6,179.99c0.54,0,1.08,0,1.62-0.01c0.44,0,0.69-0.25,0.69-0.69c0-1.02,0-2.04,0-3.06
			c1.21,0,2.41,0.01,3.62,0c0.32,0,0.58,0.11,0.8,0.32c0.77,0.74,1.55,1.48,2.32,2.22c0.42,0.4,0.33,1.04-0.2,1.29
			c-0.52,0.24-1.05,0.44-1.58,0.65c-0.1,0.04-0.19,0.08-0.29,0.11c0-0.07-0.01-0.14-0.02-0.24c-0.78,0-1.55,0-2.33,0
			c0.03-0.39,0.24-0.64,0.61-0.77c0.35-0.13,0.7-0.27,1.05-0.41c0.22-0.09,0.45-0.18,0.7-0.29c-0.2-0.15-0.36-0.28-0.54-0.42
			c-0.05,0.31-0.05,0.31-0.33,0.42c-0.37,0.15-0.73,0.3-1.1,0.44c-0.45,0.18-0.7,0.53-0.71,1.01c-0.98,0-1.96,0-2.96,0
			c0,0.23,0,0.43,0,0.63c-0.21,0-0.42,0-0.63,0c0-0.2,0-0.41,0-0.63c-0.23,0-0.43,0-0.63,0
			C214.68,180.39,214.64,180.19,214.6,179.99z"/>
		<path class="st67" d="M215.34,181.23c0.21,0,0.42,0,0.63,0c0.86,0,1.73,0,2.59,0c1.01,0,2.01,0,3.02-0.01c1.4,0,2.8,0,4.2,0.01
			c0.41,0,0.48,0.08,0.48,0.49c0,0.13,0,0.26,0,0.39c0,0.23-0.07,0.31-0.31,0.37c-1.81,0-3.62,0-5.43,0c-3.18,0-6.36,0-9.54,0
			c-0.24-0.06-0.31-0.14-0.31-0.37c0-0.18,0-0.35,0-0.53c0-0.23,0.12-0.35,0.35-0.35c0.4,0,0.81,0,1.21,0
			C213.26,181.23,214.3,181.23,215.34,181.23z"/>
		<path class="st69" d="M219.86,175.28c-0.22,0.1-0.43,0.24-0.66,0.29c-0.76,0.16-1.42-0.07-1.98-0.59c-0.18-0.17-0.3-0.4-0.45-0.61
			c-0.04-0.12-0.08-0.23-0.11-0.35c-0.15-0.52-0.07-1.02,0.11-1.52c0.03-0.04,0.05-0.07,0.08-0.11c0.62-1.05,1.87-1.43,2.91-0.89
			c0.44,0.23,0.74,0.59,0.99,1c0.05,0.18,0.11,0.36,0.15,0.54c0.1,0.46,0,0.9-0.15,1.33c-0.06,0.1-0.13,0.2-0.19,0.31
			c-0.15,0-0.3,0.01-0.45,0.01c-0.17,0-0.31,0.02-0.39,0.19C219.66,175.04,219.74,175.17,219.86,175.28z"/>
		<path class="st70" d="M220.33,184.97c0.74,0,1.48,0,2.22,0c-0.33,1.4-0.65,2.8-0.98,4.19c-0.12,0.51-0.49,0.78-1,0.75
			c-0.43-0.02-0.8-0.35-0.84-0.82c-0.02-0.27,0.06-0.55,0.11-0.82c0.19-1.03,0.4-2.06,0.59-3.09
			C220.44,185.13,220.37,185.05,220.33,184.97z"/>
		<path class="st70" d="M214.99,184.98c0.74,0,1.48,0,2.23,0c-0.1,0.06-0.12,0.14-0.09,0.26c0.24,1.21,0.46,2.41,0.69,3.62
			c0.09,0.49-0.26,0.97-0.72,1.06c-0.5,0.1-0.99-0.2-1.11-0.69C215.64,187.81,215.32,186.39,214.99,184.98z"/>
		<path class="st71" d="M221.58,181.22c-1.01,0-2.01,0.01-3.02,0.01c-0.86,0-1.73,0-2.59,0c0-0.2,0-0.4,0-0.63c1,0,1.98,0,2.96,0
			c0.11,0,0.21,0,0.32,0c0.77,0,1.55,0,2.33,0c0.01,0.1,0.01,0.17,0.02,0.24C221.58,180.96,221.58,181.09,221.58,181.22z"/>
		<path class="st72" d="M215.34,181.23c-1.04,0-2.08,0-3.12,0c0-0.2,0-0.4,0-0.63c0.22,0,0.42,0,0.62,0c0.62,0,1.25,0,1.87,0
			c0.2,0,0.4,0,0.63,0C215.34,180.82,215.34,181.02,215.34,181.23z"/>
		<path class="st69" d="M214.72,180.6c-0.62,0-1.25,0-1.87,0c0.05-0.21,0.1-0.41,0.16-0.62c0-0.02,0.01-0.04,0.01-0.06
			c0.15-0.61,0.16-0.57,0.76-0.57c0.1,0,0.21,0,0.31,0c0.28,0,0.36,0.07,0.43,0.34c0.02,0.1,0.06,0.19,0.09,0.29
			C214.64,180.19,214.68,180.39,214.72,180.6z"/>
		<path class="st73" d="M216.78,172.5c-0.18,0.5-0.26,1-0.11,1.52c0.03,0.12,0.07,0.23,0.11,0.35c-0.62,0.01-0.98-0.23-1.1-0.73
			c-0.09-0.36,0.04-0.66,0.29-0.91c0.19-0.15,0.41-0.24,0.66-0.23C216.68,172.49,216.73,172.5,216.78,172.5z"/>
		<path class="st73" d="M220.76,174.36c0.15-0.43,0.26-0.87,0.15-1.33c-0.04-0.18-0.1-0.36-0.15-0.54c0.05,0,0.1,0,0.16-0.01
			c0.25,0,0.47,0.08,0.66,0.23c0.43,0.46,0.42,0.96,0,1.41c-0.21,0.08-0.41,0.16-0.62,0.24
			C220.89,174.37,220.83,174.37,220.76,174.36z"/>
		<path class="st74" d="M220.95,174.37c0.21-0.08,0.41-0.16,0.62-0.24c0,0.28,0.01,0.55,0,0.83c0,0.19-0.11,0.33-0.28,0.33
			c-0.48,0-0.95-0.01-1.43-0.02c-0.12-0.11-0.21-0.24-0.13-0.41c0.08-0.17,0.22-0.2,0.39-0.19c0.15,0,0.3,0,0.45-0.01
			c0.12,0,0.25,0,0.38,0C220.95,174.56,220.95,174.47,220.95,174.37z"/>
		<path class="st75" d="M227.19,171.71c0.18,0.68-0.13,1.16-0.64,1.56c-0.14,0.11-0.25,0.25-0.37,0.37
			c-0.15,0.13-0.33,0.13-0.45,0.01c-0.13-0.13-0.13-0.31,0.01-0.45c0.24-0.25,0.49-0.48,0.73-0.73c0.06-0.06,0.1-0.16,0.1-0.25
			c0.01-0.4,0-0.8,0.01-1.21c0-0.24,0.12-0.39,0.31-0.38c0.2,0,0.31,0.14,0.31,0.39C227.19,171.25,227.19,171.48,227.19,171.71z"/>
		<path class="st76" d="M220.92,172.49c-0.05,0-0.1,0-0.16,0.01c-0.25-0.41-0.55-0.78-0.99-1c-1.05-0.54-2.29-0.16-2.91,0.89
			c-0.02,0.04-0.05,0.07-0.08,0.11c-0.05,0-0.1,0-0.16-0.01c0.11-0.81,0.56-1.37,1.3-1.69c1.25-0.54,2.66,0.19,2.98,1.52
			C220.91,172.37,220.91,172.43,220.92,172.49z"/>
		<path class="st77" d="M213.77,178.11c-0.34-0.01-0.62-0.31-0.61-0.65c0.01-0.34,0.3-0.61,0.64-0.6c0.34,0.01,0.62,0.3,0.61,0.65
			C214.39,177.85,214.1,178.12,213.77,178.11z"/>
		<path class="st76" d="M219.24,180.6c-0.11,0-0.21,0-0.32,0c0.01-0.48,0.26-0.83,0.71-1.01c0.37-0.15,0.73-0.3,1.1-0.44
			c0.29-0.12,0.29-0.12,0.33-0.42c0.18,0.14,0.34,0.26,0.54,0.42c-0.26,0.11-0.48,0.2-0.7,0.29c-0.35,0.14-0.7,0.28-1.05,0.41
			C219.48,179.96,219.28,180.21,219.24,180.6z"/>
		<path class="st78" d="M220.95,174.37c0,0.09,0,0.19,0,0.3c-0.13,0-0.26,0-0.38,0c0.06-0.1,0.13-0.2,0.19-0.31
			C220.83,174.37,220.89,174.37,220.95,174.37z"/>
	</g>
	<g>
		<path class="st63" d="M225.44,130c1.52,0,3.04,0,4.56,0c0,6.67,0,13.33,0,20c-6.66,0-13.33,0-20,0c0-6.67,0-13.33,0-20
			c1.53,0,3.06,0,4.6,0c-0.36,0.16-0.46,0.45-0.43,0.82c0.02,0.29,0,0.58,0,0.88c0,0.37,0.21,0.61,0.59,0.64c0,1.21,0,2.42,0,3.64
			c-0.57,0.13-1.06,0.39-1.47,0.79c-0.49,0.49-0.81,1.07-0.86,1.75c-0.05,0.69-0.01,1.39-0.01,2.08c0,0.75-0.01,1.49-0.01,2.24
			c0,1.2,0,2.4,0.01,3.61c0,0.62-0.01,1.25,0,1.87c0.01,0.83,0.82,1.64,1.65,1.64c1.53,0,3.05-0.01,4.58,0.01
			c0.52,0.01,0.97-0.12,1.37-0.44c0.35,0.29,0.74,0.44,1.2,0.44c1.55-0.01,3.11-0.01,4.66,0c0.86,0,1.68-0.66,1.73-1.64
			c0.03-0.62,0-1.25,0-1.87c0-0.44,0.01-0.88,0.01-1.33c0-1.51,0-3.01-0.01-4.52c0-0.64,0.02-1.29,0-1.93
			c-0.01-0.28-0.07-0.57-0.17-0.83c-0.3-0.8-0.85-1.38-1.66-1.71c-0.16-0.07-0.34-0.11-0.51-0.17c0-1.22,0-2.43,0-3.63
			c0.39-0.05,0.58-0.27,0.59-0.66c0-0.29-0.02-0.59,0-0.88C225.89,130.44,225.79,130.16,225.44,130z"/>
		<path class="st63" d="M218.42,130c1.07,0,2.13,0,3.2,0c-0.35,0.16-0.46,0.44-0.43,0.81c0.02,0.29,0,0.58,0,0.88
			c0,0.4,0.19,0.61,0.59,0.66c0,0.43,0,0.87,0,1.3c0,0.72,0,1.44,0,2.16c0,0.07-0.05,0.18-0.1,0.19c-0.68,0.17-1.22,0.53-1.65,1.08
			c-0.05-0.05-0.09-0.09-0.14-0.14c-0.4-0.45-0.88-0.78-1.48-0.9c-0.13-0.03-0.14-0.11-0.14-0.23c0-1.15,0-2.31,0-3.46
			c0.37-0.03,0.59-0.27,0.59-0.64c0-0.29-0.02-0.59,0-0.88C218.88,130.45,218.78,130.16,218.42,130z"/>
		<path class="st79" d="M218.42,130c0.36,0.16,0.46,0.45,0.43,0.82c-0.02,0.29,0,0.58,0,0.88c0,0.37-0.21,0.61-0.59,0.64
			c-1.17,0-2.34,0-3.51,0c-0.37-0.03-0.59-0.27-0.59-0.64c0-0.29,0.02-0.59,0-0.88c-0.02-0.37,0.07-0.66,0.43-0.82
			C215.87,130,217.14,130,218.42,130z"/>
		<path class="st80" d="M221.77,132.34c-0.39-0.05-0.58-0.27-0.59-0.66c0-0.29,0.02-0.59,0-0.88c-0.03-0.37,0.08-0.65,0.43-0.81
			c1.27,0,2.55,0,3.82,0c0.35,0.16,0.46,0.44,0.43,0.8c-0.02,0.29,0,0.58,0,0.88c0,0.4-0.19,0.61-0.59,0.66
			C224.11,132.34,222.94,132.34,221.77,132.34z"/>
		<path class="st81" d="M221.77,132.34c1.17,0,2.34,0,3.51,0c0,1.21,0,2.42,0,3.63c0.17,0.06,0.34,0.1,0.51,0.17
			c0.8,0.32,1.35,0.91,1.66,1.71c0.1,0.26,0.16,0.55,0.17,0.83c0.02,0.64,0,1.29,0,1.93c-1.68,0-3.35,0-5.03,0
			c-0.86,0-1.71,0-2.57-0.01c0-1.18,0-2.35,0-3.53c0.43-0.54,0.98-0.91,1.65-1.08c0.05-0.01,0.1-0.12,0.1-0.19
			c0.01-0.72,0-1.44,0-2.16C221.77,133.21,221.77,132.78,221.77,132.34z"/>
		<path class="st82" d="M220.02,137.07c0,1.18,0,2.35,0,3.53c0,0,0,0.01,0,0.01c-2.53,0-5.07,0-7.6,0c0-0.69-0.05-1.39,0.01-2.08
			c0.05-0.68,0.37-1.27,0.86-1.75c0.41-0.4,0.89-0.66,1.47-0.79c0-1.22,0-2.43,0-3.64c1.17,0,2.34,0,3.51,0c0,1.15,0,2.31,0,3.46
			c0,0.12,0.01,0.2,0.14,0.23c0.6,0.12,1.08,0.45,1.48,0.9C219.93,136.98,219.97,137.03,220.02,137.07z"/>
		<path class="st83" d="M220.02,140.6c0.86,0,1.71,0,2.57,0.01c1.68,0,3.35,0,5.03,0c0,1.51,0,3.01,0.01,4.52
			c0,0.44,0,0.88-0.01,1.33c-2.49,0-4.98,0-7.46,0c-0.05,0-0.09,0-0.14-0.01c0-0.78,0-1.55,0-2.33c0.77,0,1.54,0,2.31-0.01
			c0.21,0,0.38-0.08,0.5-0.26c0.13-0.19,0.15-0.39,0.05-0.6c-0.12-0.22-0.31-0.32-0.57-0.32c-0.76,0-1.53,0-2.29-0.01
			c0-0.78,0-1.55,0-2.33L220.02,140.6z"/>
		<path class="st84" d="M220.02,144.12c0,0.78,0,1.55,0,2.33l0,0.02c-0.08,0-0.17-0.01-0.25-0.01c-2.45,0-4.9,0-7.35,0
			c0-1.2-0.01-2.4-0.01-3.61c0-0.75,0-1.49,0.01-2.24c2.53,0,5.07,0,7.6,0c0,0.78,0,1.55,0,2.33l0,0.01c-0.79,0-1.57-0.01-2.36,0
			c-0.34,0-0.57,0.24-0.57,0.57c0,0.33,0.22,0.59,0.53,0.59c0.8,0.01,1.6,0,2.4,0L220.02,144.12z"/>
		<path class="st81" d="M220.02,146.45c0.05,0,0.09,0.01,0.14,0.01c2.49,0,4.98,0,7.46,0c0,0.62,0.03,1.25,0,1.87
			c-0.05,0.98-0.88,1.64-1.73,1.64c-1.55,0-3.11-0.01-4.66,0c-0.46,0-0.85-0.15-1.2-0.44c0-1.02,0-2.04,0-3.07L220.02,146.45z"/>
		<path class="st82" d="M220.02,146.46c0,1.02,0,2.04,0,3.07c-0.4,0.32-0.86,0.45-1.37,0.44c-1.53-0.02-3.05,0-4.58-0.01
			c-0.83,0-1.64-0.81-1.65-1.64c-0.01-0.62,0-1.25,0-1.87c2.45,0,4.9,0,7.35,0C219.85,146.46,219.93,146.46,220.02,146.46z"/>
		<path class="st85" d="M220.02,142.94c0.76,0,1.53,0.01,2.29,0.01c0.26,0,0.45,0.1,0.57,0.32c0.11,0.2,0.09,0.4-0.05,0.6
			c-0.12,0.18-0.29,0.26-0.5,0.26c-0.77,0-1.54,0.01-2.31,0.01c0,0,0-0.01,0-0.01c0-0.39,0-0.77,0-1.16L220.02,142.94z"/>
		<path class="st86" d="M220.02,142.95c0,0.39,0,0.77,0,1.16c-0.8,0-1.6,0.01-2.4,0c-0.31,0-0.53-0.26-0.53-0.59
			c0-0.33,0.22-0.57,0.57-0.57C218.45,142.94,219.23,142.95,220.02,142.95z"/>
	</g>
	<g>
		<path class="st63" d="M230,105.36c0,1.55,0,3.09,0,4.64c-6.67,0-13.33,0-20,0c0-6.67,0-13.33,0-20c6.67,0,13.33,0,20,0
			c0,4.64,0,9.28,0,13.92c-0.11,0-0.21,0-0.32,0c0-1.09,0-2.18,0-3.27c0-0.06-0.01-0.12-0.03-0.17c-0.25-0.87-0.49-1.73-0.75-2.59
			c-0.26-0.86-0.95-1.4-1.81-1.41c-1.38-0.01-2.76,0-4.15,0c0-0.79,0-1.57-0.01-2.36c0-0.16-0.01-0.33-0.06-0.48
			c-0.15-0.56-0.61-0.91-1.23-0.91c-1.05-0.01-2.1,0-3.16-0.01c-0.05-0.01-0.1-0.03-0.15-0.03c-1.23,0-2.46,0-3.69,0
			c-0.05,0-0.11,0.02-0.16,0.03c-1.07,0-2.13,0-3.2,0c-0.1,0-0.2,0.01-0.29,0.03c-0.6,0.15-0.96,0.63-0.96,1.27
			c0,3.24,0,6.48,0,9.72c0,0.06,0.01,0.12,0.01,0.17c0,0.47,0,0.94,0,1.42c0.87,0,1.72,0,2.56,0c0.01,0.08,0.02,0.15,0.03,0.23
			c0.12,0.99,0.97,1.74,1.97,1.74c1.08,0,2.01-0.91,1.98-1.95c0.08-0.01,0.15-0.03,0.23-0.03c1.19,0,2.37,0,3.56,0
			c1.31,0,2.62,0,3.93,0c0.02,0.34,0.09,0.66,0.27,0.96c0.39,0.65,0.96,1.01,1.72,1.01c0.76,0,1.33-0.36,1.73-1
			c0.19-0.3,0.24-0.64,0.28-0.98c0.08,0,0.17,0,0.25,0C229.05,105.35,229.52,105.36,230,105.36z"/>
		<path class="st87" d="M212.61,105.35c-0.85,0-1.7,0-2.56,0c0-0.48,0-0.95,0-1.42c0.64,0,1.27,0,1.91,0.01
			c0.13,0,0.2-0.04,0.26-0.15c1.15-1.75,3.64-1.75,4.79,0c0.07,0.11,0.15,0.15,0.28,0.15c1.81,0,3.62,0,5.43,0
			c0.06,0,0.12-0.01,0.17-0.01c0.02,0,0.03,0,0.05,0c0.23,0,0.47,0,0.7,0.01c0.13,0.01,0.2-0.04,0.27-0.14
			c1.02-1.59,3.28-1.77,4.53-0.35c0.14,0.16,0.25,0.39,0.43,0.47c0.19,0.08,0.45,0.02,0.67,0.02c0.05,0,0.09,0,0.14-0.01
			c0.11,0,0.21,0,0.32,0c0,0.48,0,0.96,0,1.44c-0.48-0.01-0.95-0.01-1.43-0.02c-0.08,0-0.17,0-0.25,0
			c-0.01-0.11-0.02-0.22-0.04-0.32c-0.18-1.05-1.21-1.82-2.26-1.65c-0.92,0.14-1.71,0.97-1.71,1.99c-1.31,0-2.62,0-3.93,0
			c-1.19,0-2.37,0-3.56,0c-0.08,0-0.15,0.02-0.23,0.03c0.04-0.59-0.19-1.09-0.6-1.48c-0.46-0.44-1.03-0.65-1.69-0.53
			c-0.59,0.1-1.03,0.41-1.36,0.9C212.72,104.59,212.66,104.97,212.61,105.35z"/>
		<path class="st88" d="M222.9,103.92c-0.06,0-0.12,0.01-0.17,0.01c-1.81,0-3.62,0-5.43,0c-0.13,0-0.21-0.04-0.28-0.15
			c-1.15-1.75-3.64-1.75-4.79,0c-0.07,0.1-0.14,0.15-0.26,0.15c-0.64-0.01-1.27-0.01-1.91-0.01c0-0.06-0.01-0.12-0.01-0.17
			c0-3.24,0-6.48,0-9.72c0-0.65,0.36-1.13,0.96-1.27c0.09-0.02,0.19-0.03,0.29-0.03c1.07,0,2.13,0,3.2,0c0,1.08,0,2.16,0,3.24
			c0.01,0.01,0.03,0.02,0.04,0.03c0.14-0.16,0.28-0.32,0.45-0.52c0.18,0.21,0.33,0.38,0.53,0.62c0.17-0.22,0.31-0.4,0.49-0.64
			c0.19,0.22,0.34,0.39,0.52,0.59c0.16-0.19,0.3-0.36,0.49-0.58c0.18,0.21,0.32,0.38,0.49,0.59c0.17-0.2,0.32-0.37,0.5-0.59
			c0.18,0.2,0.32,0.36,0.49,0.56c0-1.14,0-2.23,0-3.31c1.05,0,2.1,0,3.16,0.01c0.62,0,1.08,0.35,1.23,0.91
			c0.04,0.15,0.05,0.32,0.06,0.48c0.01,0.79,0.01,1.57,0.01,2.36c0,0.01,0,0.03,0,0.04c-0.01,0.07-0.03,0.15-0.03,0.22
			C222.9,99.13,222.9,101.52,222.9,103.92z"/>
		<path class="st89" d="M222.94,96.51c0-0.01,0-0.03,0-0.04c1.38,0,2.76-0.01,4.15,0c0.87,0.01,1.55,0.55,1.81,1.41
			c0.26,0.86,0.5,1.73,0.75,2.59c0.02,0.06,0.03,0.11,0.03,0.17c0,1.09,0,2.18,0,3.27c-0.05,0-0.09,0.01-0.14,0.01
			c-0.23,0-0.48,0.06-0.67-0.02c-0.18-0.08-0.29-0.31-0.43-0.47c-1.25-1.42-3.51-1.25-4.53,0.35c-0.07,0.11-0.14,0.15-0.27,0.14
			c-0.23-0.01-0.47-0.01-0.7-0.01c0-0.08-0.01-0.17-0.01-0.25C222.94,101.28,222.94,98.9,222.94,96.51z M228.68,100.49
			c-0.24-0.82-0.45-1.64-0.71-2.46c-0.13-0.4-0.44-0.62-0.87-0.63c-1.06-0.01-2.12,0-3.17,0c-0.02,0.05-0.07,0.1-0.07,0.15
			c0,0.94,0,1.88-0.01,2.82c0,0.14,0.05,0.18,0.18,0.18c1.5,0,3,0,4.5-0.01C228.58,100.55,228.63,100.51,228.68,100.49z"/>
		<path class="st90" d="M218.49,92.72c0,1.08,0,2.16,0,3.31c-0.17-0.2-0.31-0.36-0.49-0.56c-0.19,0.22-0.33,0.39-0.5,0.59
			c-0.17-0.2-0.32-0.37-0.49-0.59c-0.18,0.22-0.33,0.39-0.49,0.58c-0.18-0.2-0.33-0.37-0.52-0.59c-0.18,0.24-0.33,0.42-0.49,0.64
			c-0.2-0.24-0.35-0.41-0.53-0.62c-0.18,0.2-0.32,0.36-0.45,0.52c-0.01-0.01-0.03-0.02-0.04-0.03c0-1.08,0-2.16,0-3.24
			c0.05-0.01,0.11-0.03,0.16-0.03c1.23,0,2.46,0,3.69,0C218.39,92.69,218.44,92.71,218.49,92.72z"/>
		<path class="st91" d="M224.31,105.35c0-1.02,0.79-1.84,1.71-1.99c1.05-0.16,2.08,0.6,2.26,1.65c0.02,0.11,0.03,0.22,0.04,0.32
			c-0.04,0.34-0.1,0.68-0.28,0.98c-0.4,0.65-0.97,1-1.73,1c-0.76,0-1.33-0.36-1.72-1.01C224.4,106.01,224.33,105.69,224.31,105.35z
			 M225.51,105.33c0,0.44,0.37,0.81,0.8,0.8c0.42-0.01,0.78-0.37,0.79-0.79c0.01-0.43-0.35-0.8-0.78-0.81
			C225.88,104.53,225.52,104.89,225.51,105.33z"/>
		<path class="st92" d="M212.61,105.35c0.05-0.38,0.1-0.75,0.33-1.08c0.33-0.49,0.78-0.79,1.36-0.9c0.66-0.12,1.22,0.09,1.69,0.53
			c0.41,0.39,0.64,0.89,0.6,1.48c0.03,1.04-0.9,1.95-1.98,1.95c-1,0-1.85-0.75-1.97-1.74C212.63,105.5,212.62,105.42,212.61,105.35z
			 M214.62,104.54c-0.44,0-0.8,0.36-0.8,0.8c0,0.43,0.37,0.79,0.8,0.79c0.43,0,0.8-0.37,0.8-0.81
			C215.42,104.9,215.05,104.54,214.62,104.54z"/>
		<path class="st93" d="M222.94,96.51c0,2.39,0,4.77,0,7.16c0,0.08,0,0.17,0.01,0.25c-0.02,0-0.03,0-0.05,0c0-2.39,0-4.79,0.01-7.18
			C222.91,96.66,222.93,96.59,222.94,96.51z"/>
		<path class="st94" d="M228.68,100.49c-0.05,0.02-0.1,0.06-0.15,0.06c-1.5,0-3,0-4.5,0.01c-0.13,0-0.18-0.04-0.18-0.18
			c0-0.94,0-1.88,0.01-2.82c0-0.05,0.04-0.1,0.07-0.15c0.23,0.15,0.46,0.31,0.69,0.46c1.18,0.77,2.37,1.55,3.56,2.32
			C228.33,100.29,228.51,100.39,228.68,100.49z"/>
		<path class="st95" d="M228.68,100.49c-0.17-0.1-0.35-0.19-0.51-0.3c-1.19-0.77-2.37-1.54-3.56-2.32
			c-0.23-0.15-0.46-0.31-0.69-0.46c1.06,0,2.12-0.01,3.17,0c0.43,0,0.75,0.23,0.87,0.63C228.23,98.84,228.44,99.67,228.68,100.49z"
			/>
		<path class="st96" d="M225.51,105.33c0-0.44,0.36-0.8,0.81-0.79c0.43,0.01,0.79,0.38,0.78,0.81c-0.01,0.42-0.37,0.78-0.79,0.79
			C225.88,106.14,225.51,105.77,225.51,105.33z"/>
		<path class="st96" d="M214.62,104.54c0.43,0,0.8,0.36,0.8,0.78c0,0.44-0.37,0.81-0.8,0.81c-0.43,0-0.79-0.36-0.8-0.79
			C213.82,104.9,214.17,104.54,214.62,104.54z"/>
	</g>
	<g>
		<path class="st97" d="M266.22,50c1.26,0,2.52,0,3.78,0c0,6.67,0,13.33,0,20c-6.67,0-13.33,0-20,0c0-6.67,0-13.33,0-20
			c5.32,0,10.63,0,15.95,0c-0.33,0.13-0.45,0.37-0.43,0.72c0.03,0.47,0.05,0.95,0.06,1.42c0.01,0.21,0,0.42,0,0.66
			c-0.07-0.05-0.13-0.09-0.18-0.13c-1.46-1.12-3.11-1.75-4.94-1.84c-3.01-0.16-5.54,0.91-7.48,3.21c-1.92,2.29-2.52,4.95-1.89,7.88
			c0.02,0.1,0.07,0.2,0.13,0.28c0.15,0.2,0.43,0.26,0.65,0.15c0.25-0.12,0.36-0.36,0.29-0.67c-0.21-0.94-0.27-1.89-0.14-2.84
			c0.2-1.55,0.79-2.95,1.82-4.12c1.79-2.05,4.06-2.97,6.78-2.77c1.35,0.1,2.59,0.57,3.72,1.31c0.18,0.12,0.35,0.26,0.52,0.38
			c-0.01,0.02-0.01,0.03-0.02,0.05c-0.1,0-0.19,0-0.29,0c-0.66,0.02-1.32,0.05-1.99,0.08c-0.33,0.01-0.57,0.25-0.56,0.55
			c0.01,0.31,0.25,0.55,0.59,0.54c1.19-0.04,2.38-0.08,3.56-0.13c0.39-0.02,0.6-0.25,0.58-0.63c-0.04-1.14-0.09-2.28-0.13-3.43
			C266.62,50.36,266.51,50.14,266.22,50z M254.38,67.16c0.08,0.06,0.13,0.09,0.18,0.12c0.49,0.31,0.96,0.65,1.47,0.91
			c1.82,0.92,3.74,1.16,5.74,0.79c1.29-0.24,2.46-0.75,3.53-1.51c1.35-0.96,2.36-2.2,3.03-3.71c0.65-1.46,0.89-2.98,0.73-4.56
			c-0.04-0.41-0.12-0.81-0.2-1.21c-0.05-0.26-0.26-0.43-0.5-0.44c-0.25-0.01-0.48,0.12-0.54,0.35c-0.03,0.12-0.03,0.27-0.01,0.4
			c0.27,1.19,0.26,2.38,0,3.57c-0.72,3.27-3.63,5.84-6.97,6.13c-1.92,0.17-3.67-0.28-5.27-1.35c-0.19-0.13-0.37-0.27-0.58-0.44
			c0.2-0.02,0.35-0.03,0.5-0.05c0.61-0.05,1.23-0.1,1.84-0.17c0.36-0.04,0.58-0.29,0.55-0.61c-0.03-0.32-0.29-0.52-0.65-0.49
			c-0.21,0.02-0.41,0.03-0.62,0.05c-0.98,0.09-1.95,0.17-2.93,0.27c-0.13,0.01-0.27,0.09-0.37,0.18c-0.18,0.16-0.15,0.39-0.13,0.6
			c0.08,0.85,0.15,1.69,0.23,2.54c0.03,0.31,0.05,0.62,0.09,0.93c0.04,0.29,0.32,0.49,0.59,0.46c0.29-0.03,0.49-0.26,0.49-0.56
			c0-0.12-0.01-0.25-0.02-0.37C254.49,68.42,254.44,67.82,254.38,67.16z"/>
		<path d="M266.22,50c0.29,0.14,0.4,0.36,0.41,0.68c0.03,1.14,0.09,2.28,0.13,3.43c0.01,0.38-0.2,0.62-0.58,0.63
			c-1.19,0.05-2.38,0.09-3.56,0.13c-0.34,0.01-0.59-0.23-0.59-0.54c-0.01-0.3,0.23-0.54,0.56-0.55c0.66-0.03,1.32-0.05,1.99-0.08
			c0.1,0,0.19,0,0.29,0c0.01-0.02,0.01-0.03,0.02-0.05c-0.17-0.13-0.34-0.27-0.52-0.38c-1.13-0.75-2.37-1.21-3.72-1.31
			c-2.72-0.21-4.99,0.72-6.78,2.77c-1.03,1.18-1.62,2.57-1.82,4.12c-0.13,0.96-0.07,1.9,0.14,2.84c0.07,0.31-0.04,0.56-0.29,0.67
			c-0.22,0.1-0.5,0.05-0.65-0.15c-0.06-0.08-0.11-0.18-0.13-0.28c-0.63-2.93-0.04-5.59,1.89-7.88c1.93-2.31,4.46-3.37,7.48-3.21
			c1.83,0.1,3.48,0.72,4.94,1.84c0.05,0.04,0.11,0.08,0.18,0.13c0-0.23,0.01-0.44,0-0.66c-0.02-0.47-0.03-0.95-0.06-1.42
			c-0.02-0.35,0.09-0.59,0.43-0.72C266.04,50,266.13,50,266.22,50z"/>
		<path d="M254.38,67.16c0.06,0.65,0.11,1.26,0.16,1.87c0.01,0.12,0.02,0.25,0.02,0.37c0,0.29-0.2,0.52-0.49,0.56
			c-0.27,0.03-0.54-0.17-0.59-0.46c-0.05-0.31-0.06-0.62-0.09-0.93c-0.08-0.85-0.15-1.69-0.23-2.54c-0.02-0.22-0.05-0.44,0.13-0.6
			c0.1-0.09,0.24-0.17,0.37-0.18c0.98-0.1,1.95-0.18,2.93-0.27c0.21-0.02,0.41-0.04,0.62-0.05c0.36-0.03,0.62,0.17,0.65,0.49
			c0.03,0.32-0.19,0.57-0.55,0.61c-0.61,0.06-1.23,0.11-1.84,0.17c-0.15,0.01-0.3,0.03-0.5,0.05c0.22,0.16,0.39,0.31,0.58,0.44
			c1.6,1.07,3.35,1.52,5.27,1.35c3.34-0.29,6.25-2.86,6.97-6.13c0.26-1.19,0.26-2.38,0-3.57c-0.03-0.13-0.03-0.28,0.01-0.4
			c0.07-0.24,0.29-0.37,0.54-0.35c0.24,0.01,0.45,0.18,0.5,0.44c0.08,0.4,0.16,0.8,0.2,1.21c0.16,1.58-0.08,3.11-0.73,4.56
			c-0.67,1.51-1.69,2.75-3.03,3.71c-1.07,0.76-2.24,1.27-3.53,1.51c-2,0.37-3.92,0.12-5.74-0.79c-0.51-0.26-0.98-0.61-1.47-0.91
			C254.51,67.25,254.46,67.22,254.38,67.16z"/>
	</g>
	<g>
		<path d="M264.97,150.04c-0.28-0.05-0.56-0.09-0.84-0.14c-1.09-0.2-2.11-0.61-3.11-1.1c-1.63-0.8-3.14-1.78-4.49-2.98
			c-2.72-2.4-4.86-5.21-6.07-8.68c-0.3-0.86-0.48-1.73-0.46-2.65c0.02-0.88,0.31-1.65,0.93-2.28c0.55-0.56,1.08-1.14,1.67-1.65
			c0.95-0.83,1.94-0.82,2.85,0.04c0.92,0.87,1.82,1.78,2.69,2.71c0.71,0.76,0.71,1.8,0.01,2.57c-0.49,0.54-1.02,1.05-1.54,1.56
			c-0.1,0.1-0.11,0.17-0.05,0.3c0.52,1.09,1.27,2,2.08,2.87c0.83,0.89,1.74,1.68,2.76,2.33c0.27,0.17,0.56,0.31,0.83,0.47
			c0.11,0.07,0.18,0.05,0.27-0.04c0.43-0.44,0.87-0.88,1.31-1.32c0.34-0.34,0.73-0.62,1.22-0.7c0.66-0.11,1.23,0.11,1.7,0.57
			c0.85,0.84,1.7,1.68,2.54,2.53c0.91,0.91,0.98,1.94,0.14,2.91c-0.58,0.67-1.22,1.29-1.87,1.9c-0.46,0.43-1.04,0.64-1.66,0.72
			c-0.04,0.01-0.09,0.02-0.13,0.04C265.49,150.04,265.23,150.04,264.97,150.04z M251.02,134.51c0.01,1.08,0.26,1.94,0.58,2.79
			c0.9,2.38,2.33,4.43,4.05,6.28c1.67,1.8,3.62,3.24,5.83,4.33c1.1,0.54,2.23,0.98,3.47,1.11c0.75,0.08,1.46-0.01,2.03-0.55
			c0.58-0.56,1.14-1.13,1.68-1.72c0.44-0.48,0.43-0.96-0.02-1.43c-0.87-0.89-1.76-1.77-2.65-2.65c-0.36-0.35-0.82-0.36-1.23-0.05
			c-0.09,0.07-0.18,0.15-0.26,0.24c-0.49,0.48-0.97,0.97-1.46,1.45c-0.32,0.31-0.66,0.37-1.05,0.17c-0.29-0.14-0.57-0.29-0.84-0.46
			c-1.29-0.78-2.41-1.76-3.43-2.87c-0.84-0.93-1.61-1.9-2.13-3.05c-0.27-0.59-0.22-0.85,0.25-1.3c0.51-0.49,1.01-0.98,1.5-1.49
			c0.41-0.44,0.41-0.9-0.01-1.34c-0.64-0.67-1.3-1.32-1.95-1.98c-0.24-0.24-0.48-0.48-0.73-0.71c-0.39-0.35-0.85-0.36-1.26-0.03
			c-0.08,0.06-0.16,0.13-0.23,0.21c-0.45,0.45-0.9,0.91-1.36,1.36C251.25,133.32,251,133.94,251.02,134.51z"/>
	</g>
	<g>
		<path d="M299.84,150c-0.15-0.15-0.33-0.27-0.45-0.44c-1.18-1.68-2.37-3.36-3.52-5.07c-0.95-1.41-1.78-2.89-2.35-4.5
			c-0.36-1.01-0.58-2.04-0.56-3.11c0.05-3.02,2.12-5.74,5.02-6.59c3.85-1.13,7.8,1.11,8.82,4.99c0.39,1.48,0.24,2.93-0.22,4.36
			c-0.5,1.57-1.26,3.01-2.16,4.38c-1.05,1.58-2.15,3.13-3.23,4.7c-0.2,0.28-0.38,0.58-0.59,0.85c-0.13,0.16-0.3,0.29-0.45,0.44
			C300.05,150,299.95,150,299.84,150z M300,148.36c0.03-0.04,0.05-0.06,0.07-0.08c1.08-1.56,2.18-3.1,3.23-4.67
			c0.89-1.33,1.66-2.74,2.16-4.27c0.38-1.16,0.55-2.34,0.27-3.56c-0.84-3.7-4.74-5.63-8.19-4.07c-2.33,1.05-3.73,3.65-3.33,6.19
			c0.17,1.08,0.54,2.1,1.01,3.08c0.78,1.63,1.78,3.12,2.81,4.59C298.67,146.5,299.33,147.42,300,148.36z"/>
		<path d="M300.02,133.51c1.93,0.01,3.51,1.59,3.5,3.53c-0.01,1.93-1.59,3.51-3.53,3.5c-1.93-0.01-3.51-1.59-3.5-3.53
			C296.49,135.08,298.08,133.51,300.02,133.51z M300,134.69c-1.29,0-2.35,1.06-2.34,2.35c0,1.28,1.05,2.34,2.33,2.34
			c1.29,0,2.35-1.05,2.35-2.34C302.35,135.74,301.29,134.69,300,134.69z"/>
	</g>
	<g>
		<path d="M302.02,108.15c-1.01,0.58-2.01,1.15-3,1.73c-0.22,0.13-0.39,0.13-0.62,0c-2.71-1.57-5.41-3.13-8.13-4.69
			c-0.2-0.11-0.28-0.26-0.28-0.48c0-3.14,0-6.28,0-9.42c0-0.23,0.09-0.37,0.28-0.48c2.72-1.56,5.43-3.13,8.15-4.7
			c0.2-0.11,0.36-0.12,0.56,0c2.72,1.58,5.44,3.15,8.16,4.71c0.19,0.11,0.27,0.25,0.27,0.47c0,2.03,0,4.07-0.01,6.1
			c0,0.15,0.04,0.22,0.18,0.29c1.68,0.85,2.65,2.73,2.36,4.55c-0.32,1.94-1.75,3.41-3.64,3.69c-1.69,0.25-3.08-0.31-4.16-1.62
			C302.1,108.25,302.07,108.21,302.02,108.15z M298.37,109.06c0-0.11,0-0.18,0-0.25c0-2.79,0-5.59,0-8.38
			c0-0.18-0.06-0.26-0.21-0.35c-2.42-1.39-4.84-2.79-7.25-4.18c-0.06-0.04-0.13-0.07-0.22-0.12c0,0.07,0,0.11,0,0.15
			c0,2.84,0,5.69,0,8.53c0,0.15,0.07,0.21,0.18,0.28c1.46,0.84,2.92,1.69,4.38,2.53C296.27,107.85,297.3,108.44,298.37,109.06z
			 M302.16,98.41c-0.06,0.03-0.09,0.04-0.12,0.06c-0.96,0.55-1.91,1.11-2.87,1.66c-0.12,0.07-0.12,0.16-0.12,0.27
			c0,2.82,0,5.63,0,8.45c0,0.06,0.01,0.12,0.01,0.21c0.88-0.51,1.73-1,2.59-1.5c-0.73-1.69-0.61-3.29,0.55-4.72
			c1.16-1.43,2.7-1.87,4.5-1.5c0-1.86,0-3.69,0-5.54c-0.05,0.02-0.08,0.03-0.11,0.05c-1.21,0.7-2.41,1.39-3.61,2.09
			c-0.06,0.04-0.12,0.16-0.12,0.24c-0.01,0.94,0,1.88-0.01,2.82c0,0.27-0.13,0.43-0.35,0.42c-0.22,0-0.34-0.15-0.34-0.43
			c0-0.5,0-0.99,0-1.49C302.16,99.15,302.16,98.8,302.16,98.41z M301.9,105.61c0,2.03,1.66,3.69,3.7,3.7
			c2.03,0.01,3.71-1.66,3.71-3.69c0-2.05-1.66-3.72-3.68-3.72C303.56,101.9,301.9,103.55,301.9,105.61z M306.37,95.18
			c-0.05-0.04-0.07-0.06-0.09-0.07c-2.48-1.43-4.96-2.86-7.44-4.3c-0.12-0.07-0.2-0.03-0.29,0.03c-0.84,0.49-1.69,0.98-2.53,1.47
			c-0.19,0.11-0.38,0.22-0.58,0.34c0.03,0.03,0.05,0.05,0.07,0.07c2.31,1.54,4.61,3.07,6.92,4.6c0.06,0.04,0.18,0.04,0.24,0
			c0.4-0.22,0.79-0.45,1.18-0.67C304.68,96.16,305.51,95.68,306.37,95.18z M291.05,95.17c0.07,0.05,0.12,0.08,0.16,0.11
			c2.45,1.41,4.89,2.83,7.34,4.25c0.11,0.07,0.2,0.06,0.31,0c0.65-0.38,1.3-0.76,1.95-1.13c0.34-0.2,0.68-0.39,1.03-0.6
			c-0.06-0.04-0.09-0.07-0.14-0.1c-2.27-1.52-4.55-3.03-6.82-4.56c-0.13-0.08-0.21-0.07-0.33,0c-1.06,0.62-2.12,1.23-3.19,1.84
			C291.28,95.03,291.18,95.1,291.05,95.17z"/>
		<path d="M305.11,106.63c0.6-0.8,1.2-1.58,1.79-2.36c0.13-0.17,0.25-0.35,0.38-0.52c0.12-0.16,0.34-0.19,0.49-0.07
			c0.14,0.12,0.16,0.33,0.05,0.48c-0.79,1.04-1.59,2.07-2.38,3.11c-0.26,0.34-0.44,0.34-0.71,0.02c-0.42-0.5-0.84-1-1.26-1.5
			c-0.15-0.19-0.14-0.38,0.02-0.51c0.15-0.13,0.35-0.1,0.51,0.07c0.02,0.03,0.05,0.05,0.07,0.08c0.3,0.35,0.6,0.7,0.89,1.05
			C305.02,106.53,305.06,106.57,305.11,106.63z"/>
	</g>
</g>
</svg>
