<svg id="Layer_1" data-name="Layer 1" xmlns="http://www.w3.org/2000/svg" width="184.88" height="50"
     viewBox="0 0 184.88 50">
  <defs>
    <style>.cls-1{fill:#470096;}</style>
  </defs>
  <title>logo-black</title>
  <path class="cls-1"
        d="M44.59,421.38H30.85a4.37,4.37,0,0,1-4.16-2.54,5.66,5.66,0,0,1,0-3q1.55-11.25,3.11-22.5c.29-2.09.56-4.18.87-6.26.27-1.82,1.06-3.32,2.95-3.86A10.59,10.59,0,0,1,36.2,383c.89,0,.89,0,1.07-.85a7.56,7.56,0,0,1,14.84.33c.07.42.24.54.63.52s.93,0,1.4,0a4.14,4.14,0,0,1,4.41,3.61c.29,1.51.46,3,.67,4.56q1.59,11.56,3.19,23.11c.13,1,.27,1.93.4,2.89a3.83,3.83,0,0,1-3.21,4.09,6.52,6.52,0,0,1-1.33.12Zm-6-38.45H50.69c0-2.67-2.81-5.21-5.72-5.32A6,6,0,0,0,38.63,382.93Zm5.63,15a7.93,7.93,0,0,0,4.62-1.27,7.41,7.41,0,0,0,3.44-6.11c0-.6-.27-.93-.79-.94s-.81.3-.85.89c0,.24,0,.48,0,.72a6,6,0,0,1-12-.65c0-.67-.3-1-.83-1s-.78.33-.78,1A7.55,7.55,0,0,0,44.26,397.92Z"
        transform="translate(-26.47 -375.96)"/>
  <path class="cls-1"
        d="M192.43,412.85V426H186V387.63h5.88l.28,2.73c.15-.12.25-.18.33-.26a10,10,0,0,1,8.59-2.93,9.85,9.85,0,0,1,9,7.21,20.72,20.72,0,0,1-.26,14.75,9.77,9.77,0,0,1-7.75,6.47c-3.48.56-6.7,0-9.37-2.53A3.61,3.61,0,0,0,192.43,412.85Zm0-11.32c0,1.85,0,3.69,0,5.54a2.09,2.09,0,0,0,.32,1.06A6.18,6.18,0,0,0,199,410.8a5.63,5.63,0,0,0,5-4,15.32,15.32,0,0,0,.22-9.85c-.77-2.47-2.34-4.24-5.07-4.54-2.54-.29-4.8.3-6.34,2.56a2,2,0,0,0-.33,1.06C192.41,397.84,192.42,399.69,192.42,401.53Z"
        transform="translate(-26.47 -375.96)"/>
  <path class="cls-1"
        d="M128.74,415.27h-6.4V376h6.39V390.6l.54-.48a10.55,10.55,0,0,1,8.8-2.94,12.67,12.67,0,0,1,2,.35c3.3.89,5.05,3.21,5.67,6.44a18.93,18.93,0,0,1,.35,3.44c0,5.78,0,11.56,0,17.33,0,.16,0,.32,0,.52h-6.38c0-.25,0-.5,0-.75q0-8.25,0-16.48a13.93,13.93,0,0,0-.1-1.94,3.9,3.9,0,0,0-3.74-3.68c-2.72-.39-5.07.28-6.72,2.65a2.27,2.27,0,0,0-.37,1.16c0,6.1,0,12.2,0,18.3Z"
        transform="translate(-26.47 -375.96)"/>
  <path class="cls-1"
        d="M179.41,401.47a16,16,0,0,1-2.38,8.74,12.08,12.08,0,0,1-9.06,5.45,14.91,14.91,0,0,1-6.89-.64,11.58,11.58,0,0,1-7.27-6.88,17.21,17.21,0,0,1,0-13.38c1.92-4.57,5.51-7,10.41-7.54a13.89,13.89,0,0,1,8.1,1.32,12.52,12.52,0,0,1,6.76,9.79C179.28,399.37,179.31,400.42,179.41,401.47ZM159,401.6c.07.89.1,1.78.23,2.66a8.14,8.14,0,0,0,2.46,5,6.51,6.51,0,0,0,10.42-2.74,14.87,14.87,0,0,0,.25-9.55,7,7,0,0,0-2.77-3.89,6.48,6.48,0,0,0-9.75,3.35A15.69,15.69,0,0,0,159,401.6Z"
        transform="translate(-26.47 -375.96)"/>
  <path class="cls-1"
        d="M91.7,406.62H98c.07.33.11.65.19,1a4.2,4.2,0,0,0,2.6,3,8.51,8.51,0,0,0,6.35.1,3,3,0,0,0,2.12-2.64,2.66,2.66,0,0,0-1.65-2.91,39.65,39.65,0,0,0-4.79-1.49,23.89,23.89,0,0,1-6.28-2.19,6.71,6.71,0,0,1-3.59-4.38,6.87,6.87,0,0,1,2.21-6.93,11.08,11.08,0,0,1,6.2-2.83,15.88,15.88,0,0,1,8.25.8,8.45,8.45,0,0,1,5.49,5.59,21.4,21.4,0,0,1,.37,2.13H109c0-.15-.08-.3-.1-.45a3.65,3.65,0,0,0-2-2.94,6.38,6.38,0,0,0-6.38.14A2.86,2.86,0,0,0,99,395.33a2.49,2.49,0,0,0,1.83,2.4c1.78.58,3.62,1,5.41,1.55a44,44,0,0,1,5,1.73,6.48,6.48,0,0,1,4,4.3A7.06,7.06,0,0,1,113,413a11.75,11.75,0,0,1-6.37,2.62,16.56,16.56,0,0,1-9-1.06,9.24,9.24,0,0,1-5.59-6C91.85,407.93,91.81,407.3,91.7,406.62Z"
        transform="translate(-26.47 -375.96)"/>
  <path class="cls-1" d="M84.81,415.28H78.46V387.65h6.35Z" transform="translate(-26.47 -375.96)"/>
  <path class="cls-1"
        d="M81.65,383.67c-3.09,0-4.14-2.38-3.45-4.52.51-1.58,2.24-2.41,4.18-2.08a3.24,3.24,0,0,1,2.84,4C85,382.65,83.57,383.67,81.65,383.67Z"
        transform="translate(-26.47 -375.96)"/>
</svg>
