<?xml version="1.0" standalone="no"?>
<!DOCTYPE svg PUBLIC "-//W3C//DTD SVG 20010904//EN"
 "http://www.w3.org/TR/2001/REC-SVG-20010904/DTD/svg10.dtd">
<svg version="1.0" xmlns="http://www.w3.org/2000/svg"
 width="1920.000000pt" height="1080.000000pt" viewBox="0 0 1920.000000 1080.000000"
 preserveAspectRatio="xMidYMid meet">

<g transform="translate(0.000000,1080.000000) scale(0.100000,-0.100000)"
fill="#000000" stroke="none">
<path d="M1769 10013 c-432 -434 -808 -819 -836 -857 -103 -139 -180 -315
-219 -498 -25 -115 -25 -352 0 -468 107 -499 480 -869 973 -967 118 -23 338
-23 456 0 179 36 355 113 502 220 112 83 3050 3020 3131 3132 33 44 76 113 97
153 l38 72 -1678 0 -1679 0 -785 -787z"/>
<path d="M10765 10714 c-40 -471 228 -952 650 -1171 185 -95 358 -137 570
-137 274 0 512 78 730 238 49 36 289 267 630 607 l550 549 -1562 0 -1561 0 -7
-86z"/>
<path d="M18669 6833 c-289 -290 -548 -559 -576 -597 -102 -139 -180 -315
-219 -498 -25 -115 -25 -352 0 -468 107 -499 482 -871 973 -966 85 -17 334
-26 347 -13 3 3 5 695 4 1538 l-3 1532 -526 -528z"/>
<path d="M5095 3954 c-250 -34 -447 -109 -620 -236 -93 -68 -3065 -3040 -3133
-3133 -66 -89 -143 -238 -176 -340 -23 -71 -56 -210 -56 -236 0 -5 595 -9
1548 -9 l1547 0 962 962 c637 639 981 990 1020 1043 105 144 180 314 219 495
24 115 25 342 1 463 -97 487 -461 859 -947 968 -81 18 -301 32 -365 23z"/>
<path d="M14975 2144 c-250 -34 -447 -109 -620 -236 -39 -29 -480 -460 -1000
-980 l-930 -928 1737 0 1737 0 67 75 c173 192 270 378 320 615 24 115 25 342
1 463 -97 487 -461 859 -947 968 -81 18 -301 32 -365 23z"/>
</g>
</svg>
